<mxfile host="app.diagrams.net" modified="2024-06-07T07:18:56.139Z" agent="Mozilla/5.0 (Windows NT 10.0; Win64; x64) AppleWebKit/537.36 (KHTML, like Gecko) Chrome/122.0.0.0 Safari/537.36" etag="cOJmDzWnotO2ihl8GzDN" version="24.4.13" type="device">
  <diagram id="C5RBs43oDa-KdzZeNtuy" name="Page-1">
    <mxGraphModel dx="1668" dy="918" grid="1" gridSize="10" guides="1" tooltips="1" connect="1" arrows="1" fold="1" page="1" pageScale="1" pageWidth="827" pageHeight="1169" math="0" shadow="0">
      <root>
        <mxCell id="WIyWlLk6GJQsqaUBKTNV-0" />
        <mxCell id="WIyWlLk6GJQsqaUBKTNV-1" parent="WIyWlLk6GJQsqaUBKTNV-0" />
        <mxCell id="eQX2NRXdBQSOmsmhlRly-17" value="Plant" style="shape=table;startSize=30;container=1;collapsible=0;childLayout=tableLayout;fixedRows=1;rowLines=0;fontStyle=0;strokeColor=default;fontSize=16;" parent="WIyWlLk6GJQsqaUBKTNV-1" vertex="1">
          <mxGeometry x="40" y="380" width="320" height="240" as="geometry" />
        </mxCell>
        <mxCell id="eQX2NRXdBQSOmsmhlRly-18" value="" style="shape=tableRow;horizontal=0;startSize=0;swimlaneHead=0;swimlaneBody=0;top=0;left=0;bottom=0;right=0;collapsible=0;dropTarget=0;fillColor=none;points=[[0,0.5],[1,0.5]];portConstraint=eastwest;strokeColor=inherit;fontSize=16;" parent="eQX2NRXdBQSOmsmhlRly-17" vertex="1">
          <mxGeometry y="30" width="320" height="30" as="geometry" />
        </mxCell>
        <mxCell id="eQX2NRXdBQSOmsmhlRly-19" value="PK" style="shape=partialRectangle;html=1;whiteSpace=wrap;connectable=0;fillColor=none;top=0;left=0;bottom=0;right=0;overflow=hidden;pointerEvents=1;strokeColor=inherit;fontSize=16;" parent="eQX2NRXdBQSOmsmhlRly-18" vertex="1">
          <mxGeometry width="40" height="30" as="geometry">
            <mxRectangle width="40" height="30" as="alternateBounds" />
          </mxGeometry>
        </mxCell>
        <mxCell id="eQX2NRXdBQSOmsmhlRly-20" value="Id INT(11) AI NN" style="shape=partialRectangle;html=1;whiteSpace=wrap;connectable=0;fillColor=none;top=0;left=0;bottom=0;right=0;align=left;spacingLeft=6;overflow=hidden;strokeColor=inherit;fontSize=16;" parent="eQX2NRXdBQSOmsmhlRly-18" vertex="1">
          <mxGeometry x="40" width="280" height="30" as="geometry">
            <mxRectangle width="280" height="30" as="alternateBounds" />
          </mxGeometry>
        </mxCell>
        <mxCell id="Gv_cHLH_Avfb3xM3YmNq-19" value="" style="shape=tableRow;horizontal=0;startSize=0;swimlaneHead=0;swimlaneBody=0;top=0;left=0;bottom=0;right=0;collapsible=0;dropTarget=0;fillColor=none;points=[[0,0.5],[1,0.5]];portConstraint=eastwest;strokeColor=inherit;fontSize=16;" vertex="1" parent="eQX2NRXdBQSOmsmhlRly-17">
          <mxGeometry y="60" width="320" height="30" as="geometry" />
        </mxCell>
        <mxCell id="Gv_cHLH_Avfb3xM3YmNq-20" value="" style="shape=partialRectangle;html=1;whiteSpace=wrap;connectable=0;fillColor=none;top=0;left=0;bottom=0;right=0;overflow=hidden;pointerEvents=1;strokeColor=inherit;fontSize=16;" vertex="1" parent="Gv_cHLH_Avfb3xM3YmNq-19">
          <mxGeometry width="40" height="30" as="geometry">
            <mxRectangle width="40" height="30" as="alternateBounds" />
          </mxGeometry>
        </mxCell>
        <mxCell id="Gv_cHLH_Avfb3xM3YmNq-21" value="CreatedAt DateTime NN" style="shape=partialRectangle;html=1;whiteSpace=wrap;connectable=0;fillColor=none;top=0;left=0;bottom=0;right=0;align=left;spacingLeft=6;overflow=hidden;strokeColor=inherit;fontSize=16;" vertex="1" parent="Gv_cHLH_Avfb3xM3YmNq-19">
          <mxGeometry x="40" width="280" height="30" as="geometry">
            <mxRectangle width="280" height="30" as="alternateBounds" />
          </mxGeometry>
        </mxCell>
        <mxCell id="Gv_cHLH_Avfb3xM3YmNq-22" value="" style="shape=tableRow;horizontal=0;startSize=0;swimlaneHead=0;swimlaneBody=0;top=0;left=0;bottom=0;right=0;collapsible=0;dropTarget=0;fillColor=none;points=[[0,0.5],[1,0.5]];portConstraint=eastwest;strokeColor=inherit;fontSize=16;" vertex="1" parent="eQX2NRXdBQSOmsmhlRly-17">
          <mxGeometry y="90" width="320" height="30" as="geometry" />
        </mxCell>
        <mxCell id="Gv_cHLH_Avfb3xM3YmNq-23" value="" style="shape=partialRectangle;html=1;whiteSpace=wrap;connectable=0;fillColor=none;top=0;left=0;bottom=0;right=0;overflow=hidden;pointerEvents=1;strokeColor=inherit;fontSize=16;" vertex="1" parent="Gv_cHLH_Avfb3xM3YmNq-22">
          <mxGeometry width="40" height="30" as="geometry">
            <mxRectangle width="40" height="30" as="alternateBounds" />
          </mxGeometry>
        </mxCell>
        <mxCell id="Gv_cHLH_Avfb3xM3YmNq-24" value="UpdatedAt DateTime NN" style="shape=partialRectangle;html=1;whiteSpace=wrap;connectable=0;fillColor=none;top=0;left=0;bottom=0;right=0;align=left;spacingLeft=6;overflow=hidden;strokeColor=inherit;fontSize=16;" vertex="1" parent="Gv_cHLH_Avfb3xM3YmNq-22">
          <mxGeometry x="40" width="280" height="30" as="geometry">
            <mxRectangle width="280" height="30" as="alternateBounds" />
          </mxGeometry>
        </mxCell>
        <mxCell id="Gv_cHLH_Avfb3xM3YmNq-47" value="" style="shape=tableRow;horizontal=0;startSize=0;swimlaneHead=0;swimlaneBody=0;top=0;left=0;bottom=0;right=0;collapsible=0;dropTarget=0;fillColor=none;points=[[0,0.5],[1,0.5]];portConstraint=eastwest;strokeColor=inherit;fontSize=16;" vertex="1" parent="eQX2NRXdBQSOmsmhlRly-17">
          <mxGeometry y="120" width="320" height="30" as="geometry" />
        </mxCell>
        <mxCell id="Gv_cHLH_Avfb3xM3YmNq-48" value="" style="shape=partialRectangle;html=1;whiteSpace=wrap;connectable=0;fillColor=none;top=0;left=0;bottom=0;right=0;overflow=hidden;pointerEvents=1;strokeColor=inherit;fontSize=16;" vertex="1" parent="Gv_cHLH_Avfb3xM3YmNq-47">
          <mxGeometry width="40" height="30" as="geometry">
            <mxRectangle width="40" height="30" as="alternateBounds" />
          </mxGeometry>
        </mxCell>
        <mxCell id="Gv_cHLH_Avfb3xM3YmNq-49" value="PlantName varChar(255) NN" style="shape=partialRectangle;html=1;whiteSpace=wrap;connectable=0;fillColor=none;top=0;left=0;bottom=0;right=0;align=left;spacingLeft=6;overflow=hidden;strokeColor=inherit;fontSize=16;" vertex="1" parent="Gv_cHLH_Avfb3xM3YmNq-47">
          <mxGeometry x="40" width="280" height="30" as="geometry">
            <mxRectangle width="280" height="30" as="alternateBounds" />
          </mxGeometry>
        </mxCell>
        <mxCell id="eQX2NRXdBQSOmsmhlRly-21" value="" style="shape=tableRow;horizontal=0;startSize=0;swimlaneHead=0;swimlaneBody=0;top=0;left=0;bottom=0;right=0;collapsible=0;dropTarget=0;fillColor=none;points=[[0,0.5],[1,0.5]];portConstraint=eastwest;strokeColor=inherit;fontSize=16;" parent="eQX2NRXdBQSOmsmhlRly-17" vertex="1">
          <mxGeometry y="150" width="320" height="30" as="geometry" />
        </mxCell>
        <mxCell id="eQX2NRXdBQSOmsmhlRly-22" value="" style="shape=partialRectangle;html=1;whiteSpace=wrap;connectable=0;fillColor=none;top=0;left=0;bottom=0;right=0;overflow=hidden;strokeColor=inherit;fontSize=16;" parent="eQX2NRXdBQSOmsmhlRly-21" vertex="1">
          <mxGeometry width="40" height="30" as="geometry">
            <mxRectangle width="40" height="30" as="alternateBounds" />
          </mxGeometry>
        </mxCell>
        <mxCell id="eQX2NRXdBQSOmsmhlRly-23" value="MinWaterLevel INT(3) NN" style="shape=partialRectangle;html=1;whiteSpace=wrap;connectable=0;fillColor=none;top=0;left=0;bottom=0;right=0;align=left;spacingLeft=6;overflow=hidden;strokeColor=inherit;fontSize=16;" parent="eQX2NRXdBQSOmsmhlRly-21" vertex="1">
          <mxGeometry x="40" width="280" height="30" as="geometry">
            <mxRectangle width="280" height="30" as="alternateBounds" />
          </mxGeometry>
        </mxCell>
        <mxCell id="Gv_cHLH_Avfb3xM3YmNq-25" value="" style="shape=tableRow;horizontal=0;startSize=0;swimlaneHead=0;swimlaneBody=0;top=0;left=0;bottom=0;right=0;collapsible=0;dropTarget=0;fillColor=none;points=[[0,0.5],[1,0.5]];portConstraint=eastwest;strokeColor=inherit;fontSize=16;" vertex="1" parent="eQX2NRXdBQSOmsmhlRly-17">
          <mxGeometry y="180" width="320" height="30" as="geometry" />
        </mxCell>
        <mxCell id="Gv_cHLH_Avfb3xM3YmNq-26" value="" style="shape=partialRectangle;html=1;whiteSpace=wrap;connectable=0;fillColor=none;top=0;left=0;bottom=0;right=0;overflow=hidden;strokeColor=inherit;fontSize=16;" vertex="1" parent="Gv_cHLH_Avfb3xM3YmNq-25">
          <mxGeometry width="40" height="30" as="geometry">
            <mxRectangle width="40" height="30" as="alternateBounds" />
          </mxGeometry>
        </mxCell>
        <mxCell id="Gv_cHLH_Avfb3xM3YmNq-27" value="MaxWaterLevel INT(3) NN" style="shape=partialRectangle;html=1;whiteSpace=wrap;connectable=0;fillColor=none;top=0;left=0;bottom=0;right=0;align=left;spacingLeft=6;overflow=hidden;strokeColor=inherit;fontSize=16;" vertex="1" parent="Gv_cHLH_Avfb3xM3YmNq-25">
          <mxGeometry x="40" width="280" height="30" as="geometry">
            <mxRectangle width="280" height="30" as="alternateBounds" />
          </mxGeometry>
        </mxCell>
        <mxCell id="eQX2NRXdBQSOmsmhlRly-24" value="" style="shape=tableRow;horizontal=0;startSize=0;swimlaneHead=0;swimlaneBody=0;top=0;left=0;bottom=0;right=0;collapsible=0;dropTarget=0;fillColor=none;points=[[0,0.5],[1,0.5]];portConstraint=eastwest;strokeColor=inherit;fontSize=16;" parent="eQX2NRXdBQSOmsmhlRly-17" vertex="1">
          <mxGeometry y="210" width="320" height="30" as="geometry" />
        </mxCell>
        <mxCell id="eQX2NRXdBQSOmsmhlRly-25" value="FK" style="shape=partialRectangle;html=1;whiteSpace=wrap;connectable=0;fillColor=none;top=0;left=0;bottom=0;right=0;overflow=hidden;strokeColor=inherit;fontSize=16;" parent="eQX2NRXdBQSOmsmhlRly-24" vertex="1">
          <mxGeometry width="40" height="30" as="geometry">
            <mxRectangle width="40" height="30" as="alternateBounds" />
          </mxGeometry>
        </mxCell>
        <mxCell id="eQX2NRXdBQSOmsmhlRly-26" value="UserId INT(11) NN" style="shape=partialRectangle;html=1;whiteSpace=wrap;connectable=0;fillColor=none;top=0;left=0;bottom=0;right=0;align=left;spacingLeft=6;overflow=hidden;strokeColor=inherit;fontSize=16;" parent="eQX2NRXdBQSOmsmhlRly-24" vertex="1">
          <mxGeometry x="40" width="280" height="30" as="geometry">
            <mxRectangle width="280" height="30" as="alternateBounds" />
          </mxGeometry>
        </mxCell>
        <mxCell id="eQX2NRXdBQSOmsmhlRly-63" value="&lt;b&gt;&lt;font style=&quot;font-size: 15px;&quot;&gt;AI = Auto increment&lt;/font&gt;&lt;/b&gt;" style="text;html=1;strokeColor=none;fillColor=none;align=left;verticalAlign=middle;whiteSpace=wrap;rounded=0;" parent="WIyWlLk6GJQsqaUBKTNV-1" vertex="1">
          <mxGeometry x="40" y="670" width="160" height="30" as="geometry" />
        </mxCell>
        <mxCell id="eQX2NRXdBQSOmsmhlRly-64" value="&lt;font style=&quot;font-size: 15px;&quot;&gt;&lt;b&gt;NN = Not Null&lt;/b&gt;&lt;/font&gt;" style="text;html=1;strokeColor=none;fillColor=none;align=left;verticalAlign=middle;whiteSpace=wrap;rounded=0;" parent="WIyWlLk6GJQsqaUBKTNV-1" vertex="1">
          <mxGeometry x="40" y="700" width="120" height="30" as="geometry" />
        </mxCell>
        <mxCell id="eQX2NRXdBQSOmsmhlRly-68" value="&lt;font style=&quot;font-size: 20px;&quot;&gt;&lt;b&gt;Fysisk&lt;/b&gt;&lt;/font&gt;" style="text;html=1;strokeColor=none;fillColor=none;align=center;verticalAlign=middle;whiteSpace=wrap;rounded=0;" parent="WIyWlLk6GJQsqaUBKTNV-1" vertex="1">
          <mxGeometry x="354" y="100" width="60" height="30" as="geometry" />
        </mxCell>
        <mxCell id="eQX2NRXdBQSOmsmhlRly-120" value="&lt;font style=&quot;font-size: 20px;&quot;&gt;&lt;b&gt;Logisk&lt;/b&gt;&lt;/font&gt;" style="text;html=1;strokeColor=none;fillColor=none;align=center;verticalAlign=middle;whiteSpace=wrap;rounded=0;" parent="WIyWlLk6GJQsqaUBKTNV-1" vertex="1">
          <mxGeometry x="354" y="920" width="60" height="30" as="geometry" />
        </mxCell>
        <mxCell id="eQX2NRXdBQSOmsmhlRly-170" value="&lt;font style=&quot;font-size: 20px;&quot;&gt;&lt;b&gt;Konceptuelt&lt;/b&gt;&lt;/font&gt;" style="text;html=1;strokeColor=none;fillColor=none;align=center;verticalAlign=middle;whiteSpace=wrap;rounded=0;" parent="WIyWlLk6GJQsqaUBKTNV-1" vertex="1">
          <mxGeometry x="334" y="1680" width="60" height="30" as="geometry" />
        </mxCell>
        <mxCell id="Gv_cHLH_Avfb3xM3YmNq-0" value="Arduino" style="shape=table;startSize=30;container=1;collapsible=0;childLayout=tableLayout;fixedRows=1;rowLines=0;fontStyle=0;strokeColor=default;fontSize=16;" vertex="1" parent="WIyWlLk6GJQsqaUBKTNV-1">
          <mxGeometry x="876" y="220" width="340" height="210" as="geometry" />
        </mxCell>
        <mxCell id="Gv_cHLH_Avfb3xM3YmNq-1" value="" style="shape=tableRow;horizontal=0;startSize=0;swimlaneHead=0;swimlaneBody=0;top=0;left=0;bottom=0;right=0;collapsible=0;dropTarget=0;fillColor=none;points=[[0,0.5],[1,0.5]];portConstraint=eastwest;strokeColor=inherit;fontSize=16;" vertex="1" parent="Gv_cHLH_Avfb3xM3YmNq-0">
          <mxGeometry y="30" width="340" height="30" as="geometry" />
        </mxCell>
        <mxCell id="Gv_cHLH_Avfb3xM3YmNq-2" value="PK" style="shape=partialRectangle;html=1;whiteSpace=wrap;connectable=0;fillColor=none;top=0;left=0;bottom=0;right=0;overflow=hidden;pointerEvents=1;strokeColor=inherit;fontSize=16;" vertex="1" parent="Gv_cHLH_Avfb3xM3YmNq-1">
          <mxGeometry width="40" height="30" as="geometry">
            <mxRectangle width="40" height="30" as="alternateBounds" />
          </mxGeometry>
        </mxCell>
        <mxCell id="Gv_cHLH_Avfb3xM3YmNq-3" value="Id INT(11) AI NN" style="shape=partialRectangle;html=1;whiteSpace=wrap;connectable=0;fillColor=none;top=0;left=0;bottom=0;right=0;align=left;spacingLeft=6;overflow=hidden;strokeColor=inherit;fontSize=16;" vertex="1" parent="Gv_cHLH_Avfb3xM3YmNq-1">
          <mxGeometry x="40" width="300" height="30" as="geometry">
            <mxRectangle width="300" height="30" as="alternateBounds" />
          </mxGeometry>
        </mxCell>
        <mxCell id="Gv_cHLH_Avfb3xM3YmNq-4" value="" style="shape=tableRow;horizontal=0;startSize=0;swimlaneHead=0;swimlaneBody=0;top=0;left=0;bottom=0;right=0;collapsible=0;dropTarget=0;fillColor=none;points=[[0,0.5],[1,0.5]];portConstraint=eastwest;strokeColor=inherit;fontSize=16;" vertex="1" parent="Gv_cHLH_Avfb3xM3YmNq-0">
          <mxGeometry y="60" width="340" height="30" as="geometry" />
        </mxCell>
        <mxCell id="Gv_cHLH_Avfb3xM3YmNq-5" value="" style="shape=partialRectangle;html=1;whiteSpace=wrap;connectable=0;fillColor=none;top=0;left=0;bottom=0;right=0;overflow=hidden;strokeColor=inherit;fontSize=16;" vertex="1" parent="Gv_cHLH_Avfb3xM3YmNq-4">
          <mxGeometry width="40" height="30" as="geometry">
            <mxRectangle width="40" height="30" as="alternateBounds" />
          </mxGeometry>
        </mxCell>
        <mxCell id="Gv_cHLH_Avfb3xM3YmNq-6" value="CreatedAt DateTime NN" style="shape=partialRectangle;html=1;whiteSpace=wrap;connectable=0;fillColor=none;top=0;left=0;bottom=0;right=0;align=left;spacingLeft=6;overflow=hidden;strokeColor=inherit;fontSize=16;" vertex="1" parent="Gv_cHLH_Avfb3xM3YmNq-4">
          <mxGeometry x="40" width="300" height="30" as="geometry">
            <mxRectangle width="300" height="30" as="alternateBounds" />
          </mxGeometry>
        </mxCell>
        <mxCell id="Gv_cHLH_Avfb3xM3YmNq-13" value="" style="shape=tableRow;horizontal=0;startSize=0;swimlaneHead=0;swimlaneBody=0;top=0;left=0;bottom=0;right=0;collapsible=0;dropTarget=0;fillColor=none;points=[[0,0.5],[1,0.5]];portConstraint=eastwest;strokeColor=inherit;fontSize=16;" vertex="1" parent="Gv_cHLH_Avfb3xM3YmNq-0">
          <mxGeometry y="90" width="340" height="30" as="geometry" />
        </mxCell>
        <mxCell id="Gv_cHLH_Avfb3xM3YmNq-14" value="" style="shape=partialRectangle;html=1;whiteSpace=wrap;connectable=0;fillColor=none;top=0;left=0;bottom=0;right=0;overflow=hidden;strokeColor=inherit;fontSize=16;" vertex="1" parent="Gv_cHLH_Avfb3xM3YmNq-13">
          <mxGeometry width="40" height="30" as="geometry">
            <mxRectangle width="40" height="30" as="alternateBounds" />
          </mxGeometry>
        </mxCell>
        <mxCell id="Gv_cHLH_Avfb3xM3YmNq-15" value="UpdatedAt DateTime NN" style="shape=partialRectangle;html=1;whiteSpace=wrap;connectable=0;fillColor=none;top=0;left=0;bottom=0;right=0;align=left;spacingLeft=6;overflow=hidden;strokeColor=inherit;fontSize=16;" vertex="1" parent="Gv_cHLH_Avfb3xM3YmNq-13">
          <mxGeometry x="40" width="300" height="30" as="geometry">
            <mxRectangle width="300" height="30" as="alternateBounds" />
          </mxGeometry>
        </mxCell>
        <mxCell id="Gv_cHLH_Avfb3xM3YmNq-7" value="" style="shape=tableRow;horizontal=0;startSize=0;swimlaneHead=0;swimlaneBody=0;top=0;left=0;bottom=0;right=0;collapsible=0;dropTarget=0;fillColor=none;points=[[0,0.5],[1,0.5]];portConstraint=eastwest;strokeColor=inherit;fontSize=16;" vertex="1" parent="Gv_cHLH_Avfb3xM3YmNq-0">
          <mxGeometry y="120" width="340" height="30" as="geometry" />
        </mxCell>
        <mxCell id="Gv_cHLH_Avfb3xM3YmNq-8" value="" style="shape=partialRectangle;html=1;whiteSpace=wrap;connectable=0;fillColor=none;top=0;left=0;bottom=0;right=0;overflow=hidden;strokeColor=inherit;fontSize=16;" vertex="1" parent="Gv_cHLH_Avfb3xM3YmNq-7">
          <mxGeometry width="40" height="30" as="geometry">
            <mxRectangle width="40" height="30" as="alternateBounds" />
          </mxGeometry>
        </mxCell>
        <mxCell id="Gv_cHLH_Avfb3xM3YmNq-9" value="SensorId1 INT(1) NN default&quot;1&lt;span style=&quot;background-color: initial;&quot;&gt;&quot;&lt;/span&gt;" style="shape=partialRectangle;html=1;whiteSpace=wrap;connectable=0;fillColor=none;top=0;left=0;bottom=0;right=0;align=left;spacingLeft=6;overflow=hidden;strokeColor=inherit;fontSize=16;" vertex="1" parent="Gv_cHLH_Avfb3xM3YmNq-7">
          <mxGeometry x="40" width="300" height="30" as="geometry">
            <mxRectangle width="300" height="30" as="alternateBounds" />
          </mxGeometry>
        </mxCell>
        <mxCell id="Gv_cHLH_Avfb3xM3YmNq-16" value="" style="shape=tableRow;horizontal=0;startSize=0;swimlaneHead=0;swimlaneBody=0;top=0;left=0;bottom=0;right=0;collapsible=0;dropTarget=0;fillColor=none;points=[[0,0.5],[1,0.5]];portConstraint=eastwest;strokeColor=inherit;fontSize=16;" vertex="1" parent="Gv_cHLH_Avfb3xM3YmNq-0">
          <mxGeometry y="150" width="340" height="30" as="geometry" />
        </mxCell>
        <mxCell id="Gv_cHLH_Avfb3xM3YmNq-17" value="" style="shape=partialRectangle;html=1;whiteSpace=wrap;connectable=0;fillColor=none;top=0;left=0;bottom=0;right=0;overflow=hidden;strokeColor=inherit;fontSize=16;" vertex="1" parent="Gv_cHLH_Avfb3xM3YmNq-16">
          <mxGeometry width="40" height="30" as="geometry">
            <mxRectangle width="40" height="30" as="alternateBounds" />
          </mxGeometry>
        </mxCell>
        <mxCell id="Gv_cHLH_Avfb3xM3YmNq-18" value="SensorId2 INT(1) NN default&quot;1&lt;span style=&quot;background-color: initial;&quot;&gt;&quot;&lt;/span&gt;" style="shape=partialRectangle;html=1;whiteSpace=wrap;connectable=0;fillColor=none;top=0;left=0;bottom=0;right=0;align=left;spacingLeft=6;overflow=hidden;strokeColor=inherit;fontSize=16;" vertex="1" parent="Gv_cHLH_Avfb3xM3YmNq-16">
          <mxGeometry x="40" width="300" height="30" as="geometry">
            <mxRectangle width="300" height="30" as="alternateBounds" />
          </mxGeometry>
        </mxCell>
        <mxCell id="Gv_cHLH_Avfb3xM3YmNq-10" value="" style="shape=tableRow;horizontal=0;startSize=0;swimlaneHead=0;swimlaneBody=0;top=0;left=0;bottom=0;right=0;collapsible=0;dropTarget=0;fillColor=none;points=[[0,0.5],[1,0.5]];portConstraint=eastwest;strokeColor=inherit;fontSize=16;" vertex="1" parent="Gv_cHLH_Avfb3xM3YmNq-0">
          <mxGeometry y="180" width="340" height="30" as="geometry" />
        </mxCell>
        <mxCell id="Gv_cHLH_Avfb3xM3YmNq-11" value="FK" style="shape=partialRectangle;html=1;whiteSpace=wrap;connectable=0;fillColor=none;top=0;left=0;bottom=0;right=0;overflow=hidden;strokeColor=inherit;fontSize=16;" vertex="1" parent="Gv_cHLH_Avfb3xM3YmNq-10">
          <mxGeometry width="40" height="30" as="geometry">
            <mxRectangle width="40" height="30" as="alternateBounds" />
          </mxGeometry>
        </mxCell>
        <mxCell id="Gv_cHLH_Avfb3xM3YmNq-12" value="UserId INT(11) NN" style="shape=partialRectangle;html=1;whiteSpace=wrap;connectable=0;fillColor=none;top=0;left=0;bottom=0;right=0;align=left;spacingLeft=6;overflow=hidden;strokeColor=inherit;fontSize=16;" vertex="1" parent="Gv_cHLH_Avfb3xM3YmNq-10">
          <mxGeometry x="40" width="300" height="30" as="geometry">
            <mxRectangle width="300" height="30" as="alternateBounds" />
          </mxGeometry>
        </mxCell>
        <mxCell id="Gv_cHLH_Avfb3xM3YmNq-28" value="PlantOverview" style="shape=table;startSize=30;container=1;collapsible=0;childLayout=tableLayout;fixedRows=1;rowLines=0;fontStyle=0;strokeColor=default;fontSize=16;" vertex="1" parent="WIyWlLk6GJQsqaUBKTNV-1">
          <mxGeometry x="440" y="220" width="320" height="240" as="geometry" />
        </mxCell>
        <mxCell id="Gv_cHLH_Avfb3xM3YmNq-29" value="" style="shape=tableRow;horizontal=0;startSize=0;swimlaneHead=0;swimlaneBody=0;top=0;left=0;bottom=0;right=0;collapsible=0;dropTarget=0;fillColor=none;points=[[0,0.5],[1,0.5]];portConstraint=eastwest;strokeColor=inherit;fontSize=16;" vertex="1" parent="Gv_cHLH_Avfb3xM3YmNq-28">
          <mxGeometry y="30" width="320" height="30" as="geometry" />
        </mxCell>
        <mxCell id="Gv_cHLH_Avfb3xM3YmNq-30" value="PK" style="shape=partialRectangle;html=1;whiteSpace=wrap;connectable=0;fillColor=none;top=0;left=0;bottom=0;right=0;overflow=hidden;pointerEvents=1;strokeColor=inherit;fontSize=16;" vertex="1" parent="Gv_cHLH_Avfb3xM3YmNq-29">
          <mxGeometry width="40" height="30" as="geometry">
            <mxRectangle width="40" height="30" as="alternateBounds" />
          </mxGeometry>
        </mxCell>
        <mxCell id="Gv_cHLH_Avfb3xM3YmNq-31" value="Id INT(11) AI NN" style="shape=partialRectangle;html=1;whiteSpace=wrap;connectable=0;fillColor=none;top=0;left=0;bottom=0;right=0;align=left;spacingLeft=6;overflow=hidden;strokeColor=inherit;fontSize=16;" vertex="1" parent="Gv_cHLH_Avfb3xM3YmNq-29">
          <mxGeometry x="40" width="280" height="30" as="geometry">
            <mxRectangle width="280" height="30" as="alternateBounds" />
          </mxGeometry>
        </mxCell>
        <mxCell id="Gv_cHLH_Avfb3xM3YmNq-32" value="" style="shape=tableRow;horizontal=0;startSize=0;swimlaneHead=0;swimlaneBody=0;top=0;left=0;bottom=0;right=0;collapsible=0;dropTarget=0;fillColor=none;points=[[0,0.5],[1,0.5]];portConstraint=eastwest;strokeColor=inherit;fontSize=16;" vertex="1" parent="Gv_cHLH_Avfb3xM3YmNq-28">
          <mxGeometry y="60" width="320" height="30" as="geometry" />
        </mxCell>
        <mxCell id="Gv_cHLH_Avfb3xM3YmNq-33" value="" style="shape=partialRectangle;html=1;whiteSpace=wrap;connectable=0;fillColor=none;top=0;left=0;bottom=0;right=0;overflow=hidden;pointerEvents=1;strokeColor=inherit;fontSize=16;" vertex="1" parent="Gv_cHLH_Avfb3xM3YmNq-32">
          <mxGeometry width="40" height="30" as="geometry">
            <mxRectangle width="40" height="30" as="alternateBounds" />
          </mxGeometry>
        </mxCell>
        <mxCell id="Gv_cHLH_Avfb3xM3YmNq-34" value="CreatedAt DateTime NN" style="shape=partialRectangle;html=1;whiteSpace=wrap;connectable=0;fillColor=none;top=0;left=0;bottom=0;right=0;align=left;spacingLeft=6;overflow=hidden;strokeColor=inherit;fontSize=16;" vertex="1" parent="Gv_cHLH_Avfb3xM3YmNq-32">
          <mxGeometry x="40" width="280" height="30" as="geometry">
            <mxRectangle width="280" height="30" as="alternateBounds" />
          </mxGeometry>
        </mxCell>
        <mxCell id="Gv_cHLH_Avfb3xM3YmNq-35" value="" style="shape=tableRow;horizontal=0;startSize=0;swimlaneHead=0;swimlaneBody=0;top=0;left=0;bottom=0;right=0;collapsible=0;dropTarget=0;fillColor=none;points=[[0,0.5],[1,0.5]];portConstraint=eastwest;strokeColor=inherit;fontSize=16;" vertex="1" parent="Gv_cHLH_Avfb3xM3YmNq-28">
          <mxGeometry y="90" width="320" height="30" as="geometry" />
        </mxCell>
        <mxCell id="Gv_cHLH_Avfb3xM3YmNq-36" value="" style="shape=partialRectangle;html=1;whiteSpace=wrap;connectable=0;fillColor=none;top=0;left=0;bottom=0;right=0;overflow=hidden;pointerEvents=1;strokeColor=inherit;fontSize=16;" vertex="1" parent="Gv_cHLH_Avfb3xM3YmNq-35">
          <mxGeometry width="40" height="30" as="geometry">
            <mxRectangle width="40" height="30" as="alternateBounds" />
          </mxGeometry>
        </mxCell>
        <mxCell id="Gv_cHLH_Avfb3xM3YmNq-37" value="UpdatedAt DateTime NN" style="shape=partialRectangle;html=1;whiteSpace=wrap;connectable=0;fillColor=none;top=0;left=0;bottom=0;right=0;align=left;spacingLeft=6;overflow=hidden;strokeColor=inherit;fontSize=16;" vertex="1" parent="Gv_cHLH_Avfb3xM3YmNq-35">
          <mxGeometry x="40" width="280" height="30" as="geometry">
            <mxRectangle width="280" height="30" as="alternateBounds" />
          </mxGeometry>
        </mxCell>
        <mxCell id="Gv_cHLH_Avfb3xM3YmNq-38" value="" style="shape=tableRow;horizontal=0;startSize=0;swimlaneHead=0;swimlaneBody=0;top=0;left=0;bottom=0;right=0;collapsible=0;dropTarget=0;fillColor=none;points=[[0,0.5],[1,0.5]];portConstraint=eastwest;strokeColor=inherit;fontSize=16;" vertex="1" parent="Gv_cHLH_Avfb3xM3YmNq-28">
          <mxGeometry y="120" width="320" height="30" as="geometry" />
        </mxCell>
        <mxCell id="Gv_cHLH_Avfb3xM3YmNq-39" value="" style="shape=partialRectangle;html=1;whiteSpace=wrap;connectable=0;fillColor=none;top=0;left=0;bottom=0;right=0;overflow=hidden;strokeColor=inherit;fontSize=16;" vertex="1" parent="Gv_cHLH_Avfb3xM3YmNq-38">
          <mxGeometry width="40" height="30" as="geometry">
            <mxRectangle width="40" height="30" as="alternateBounds" />
          </mxGeometry>
        </mxCell>
        <mxCell id="Gv_cHLH_Avfb3xM3YmNq-40" value="PlantName varChar(255) NN" style="shape=partialRectangle;html=1;whiteSpace=wrap;connectable=0;fillColor=none;top=0;left=0;bottom=0;right=0;align=left;spacingLeft=6;overflow=hidden;strokeColor=inherit;fontSize=16;" vertex="1" parent="Gv_cHLH_Avfb3xM3YmNq-38">
          <mxGeometry x="40" width="280" height="30" as="geometry">
            <mxRectangle width="280" height="30" as="alternateBounds" />
          </mxGeometry>
        </mxCell>
        <mxCell id="Gv_cHLH_Avfb3xM3YmNq-41" value="" style="shape=tableRow;horizontal=0;startSize=0;swimlaneHead=0;swimlaneBody=0;top=0;left=0;bottom=0;right=0;collapsible=0;dropTarget=0;fillColor=none;points=[[0,0.5],[1,0.5]];portConstraint=eastwest;strokeColor=inherit;fontSize=16;" vertex="1" parent="Gv_cHLH_Avfb3xM3YmNq-28">
          <mxGeometry y="150" width="320" height="30" as="geometry" />
        </mxCell>
        <mxCell id="Gv_cHLH_Avfb3xM3YmNq-42" value="" style="shape=partialRectangle;html=1;whiteSpace=wrap;connectable=0;fillColor=none;top=0;left=0;bottom=0;right=0;overflow=hidden;strokeColor=inherit;fontSize=16;" vertex="1" parent="Gv_cHLH_Avfb3xM3YmNq-41">
          <mxGeometry width="40" height="30" as="geometry">
            <mxRectangle width="40" height="30" as="alternateBounds" />
          </mxGeometry>
        </mxCell>
        <mxCell id="Gv_cHLH_Avfb3xM3YmNq-43" value="MoistureLevel INT(3) NN" style="shape=partialRectangle;html=1;whiteSpace=wrap;connectable=0;fillColor=none;top=0;left=0;bottom=0;right=0;align=left;spacingLeft=6;overflow=hidden;strokeColor=inherit;fontSize=16;" vertex="1" parent="Gv_cHLH_Avfb3xM3YmNq-41">
          <mxGeometry x="40" width="280" height="30" as="geometry">
            <mxRectangle width="280" height="30" as="alternateBounds" />
          </mxGeometry>
        </mxCell>
        <mxCell id="Gv_cHLH_Avfb3xM3YmNq-50" value="" style="shape=tableRow;horizontal=0;startSize=0;swimlaneHead=0;swimlaneBody=0;top=0;left=0;bottom=0;right=0;collapsible=0;dropTarget=0;fillColor=none;points=[[0,0.5],[1,0.5]];portConstraint=eastwest;strokeColor=inherit;fontSize=16;" vertex="1" parent="Gv_cHLH_Avfb3xM3YmNq-28">
          <mxGeometry y="180" width="320" height="30" as="geometry" />
        </mxCell>
        <mxCell id="Gv_cHLH_Avfb3xM3YmNq-51" value="" style="shape=partialRectangle;html=1;whiteSpace=wrap;connectable=0;fillColor=none;top=0;left=0;bottom=0;right=0;overflow=hidden;strokeColor=inherit;fontSize=16;" vertex="1" parent="Gv_cHLH_Avfb3xM3YmNq-50">
          <mxGeometry width="40" height="30" as="geometry">
            <mxRectangle width="40" height="30" as="alternateBounds" />
          </mxGeometry>
        </mxCell>
        <mxCell id="Gv_cHLH_Avfb3xM3YmNq-52" value="SensorId INT(1) NN" style="shape=partialRectangle;html=1;whiteSpace=wrap;connectable=0;fillColor=none;top=0;left=0;bottom=0;right=0;align=left;spacingLeft=6;overflow=hidden;strokeColor=inherit;fontSize=16;" vertex="1" parent="Gv_cHLH_Avfb3xM3YmNq-50">
          <mxGeometry x="40" width="280" height="30" as="geometry">
            <mxRectangle width="280" height="30" as="alternateBounds" />
          </mxGeometry>
        </mxCell>
        <mxCell id="Gv_cHLH_Avfb3xM3YmNq-53" value="" style="shape=tableRow;horizontal=0;startSize=0;swimlaneHead=0;swimlaneBody=0;top=0;left=0;bottom=0;right=0;collapsible=0;dropTarget=0;fillColor=none;points=[[0,0.5],[1,0.5]];portConstraint=eastwest;strokeColor=inherit;fontSize=16;" vertex="1" parent="Gv_cHLH_Avfb3xM3YmNq-28">
          <mxGeometry y="210" width="320" height="30" as="geometry" />
        </mxCell>
        <mxCell id="Gv_cHLH_Avfb3xM3YmNq-54" value="FK" style="shape=partialRectangle;html=1;whiteSpace=wrap;connectable=0;fillColor=none;top=0;left=0;bottom=0;right=0;overflow=hidden;strokeColor=inherit;fontSize=16;" vertex="1" parent="Gv_cHLH_Avfb3xM3YmNq-53">
          <mxGeometry width="40" height="30" as="geometry">
            <mxRectangle width="40" height="30" as="alternateBounds" />
          </mxGeometry>
        </mxCell>
        <mxCell id="Gv_cHLH_Avfb3xM3YmNq-55" value="ArduinoId INT(11)" style="shape=partialRectangle;html=1;whiteSpace=wrap;connectable=0;fillColor=none;top=0;left=0;bottom=0;right=0;align=left;spacingLeft=6;overflow=hidden;strokeColor=inherit;fontSize=16;" vertex="1" parent="Gv_cHLH_Avfb3xM3YmNq-53">
          <mxGeometry x="40" width="280" height="30" as="geometry">
            <mxRectangle width="280" height="30" as="alternateBounds" />
          </mxGeometry>
        </mxCell>
        <mxCell id="Gv_cHLH_Avfb3xM3YmNq-56" value="Setting" style="shape=table;startSize=30;container=1;collapsible=0;childLayout=tableLayout;fixedRows=1;rowLines=0;fontStyle=0;strokeColor=default;fontSize=16;" vertex="1" parent="WIyWlLk6GJQsqaUBKTNV-1">
          <mxGeometry x="876" y="560" width="320" height="240" as="geometry" />
        </mxCell>
        <mxCell id="Gv_cHLH_Avfb3xM3YmNq-57" value="" style="shape=tableRow;horizontal=0;startSize=0;swimlaneHead=0;swimlaneBody=0;top=0;left=0;bottom=0;right=0;collapsible=0;dropTarget=0;fillColor=none;points=[[0,0.5],[1,0.5]];portConstraint=eastwest;strokeColor=inherit;fontSize=16;" vertex="1" parent="Gv_cHLH_Avfb3xM3YmNq-56">
          <mxGeometry y="30" width="320" height="30" as="geometry" />
        </mxCell>
        <mxCell id="Gv_cHLH_Avfb3xM3YmNq-58" value="PK" style="shape=partialRectangle;html=1;whiteSpace=wrap;connectable=0;fillColor=none;top=0;left=0;bottom=0;right=0;overflow=hidden;pointerEvents=1;strokeColor=inherit;fontSize=16;" vertex="1" parent="Gv_cHLH_Avfb3xM3YmNq-57">
          <mxGeometry width="40" height="30" as="geometry">
            <mxRectangle width="40" height="30" as="alternateBounds" />
          </mxGeometry>
        </mxCell>
        <mxCell id="Gv_cHLH_Avfb3xM3YmNq-59" value="Id INT(11) AI NN" style="shape=partialRectangle;html=1;whiteSpace=wrap;connectable=0;fillColor=none;top=0;left=0;bottom=0;right=0;align=left;spacingLeft=6;overflow=hidden;strokeColor=inherit;fontSize=16;" vertex="1" parent="Gv_cHLH_Avfb3xM3YmNq-57">
          <mxGeometry x="40" width="280" height="30" as="geometry">
            <mxRectangle width="280" height="30" as="alternateBounds" />
          </mxGeometry>
        </mxCell>
        <mxCell id="Gv_cHLH_Avfb3xM3YmNq-60" value="" style="shape=tableRow;horizontal=0;startSize=0;swimlaneHead=0;swimlaneBody=0;top=0;left=0;bottom=0;right=0;collapsible=0;dropTarget=0;fillColor=none;points=[[0,0.5],[1,0.5]];portConstraint=eastwest;strokeColor=inherit;fontSize=16;" vertex="1" parent="Gv_cHLH_Avfb3xM3YmNq-56">
          <mxGeometry y="60" width="320" height="30" as="geometry" />
        </mxCell>
        <mxCell id="Gv_cHLH_Avfb3xM3YmNq-61" value="" style="shape=partialRectangle;html=1;whiteSpace=wrap;connectable=0;fillColor=none;top=0;left=0;bottom=0;right=0;overflow=hidden;pointerEvents=1;strokeColor=inherit;fontSize=16;" vertex="1" parent="Gv_cHLH_Avfb3xM3YmNq-60">
          <mxGeometry width="40" height="30" as="geometry">
            <mxRectangle width="40" height="30" as="alternateBounds" />
          </mxGeometry>
        </mxCell>
        <mxCell id="Gv_cHLH_Avfb3xM3YmNq-62" value="CreatedAt DateTime NN" style="shape=partialRectangle;html=1;whiteSpace=wrap;connectable=0;fillColor=none;top=0;left=0;bottom=0;right=0;align=left;spacingLeft=6;overflow=hidden;strokeColor=inherit;fontSize=16;" vertex="1" parent="Gv_cHLH_Avfb3xM3YmNq-60">
          <mxGeometry x="40" width="280" height="30" as="geometry">
            <mxRectangle width="280" height="30" as="alternateBounds" />
          </mxGeometry>
        </mxCell>
        <mxCell id="Gv_cHLH_Avfb3xM3YmNq-63" value="" style="shape=tableRow;horizontal=0;startSize=0;swimlaneHead=0;swimlaneBody=0;top=0;left=0;bottom=0;right=0;collapsible=0;dropTarget=0;fillColor=none;points=[[0,0.5],[1,0.5]];portConstraint=eastwest;strokeColor=inherit;fontSize=16;" vertex="1" parent="Gv_cHLH_Avfb3xM3YmNq-56">
          <mxGeometry y="90" width="320" height="30" as="geometry" />
        </mxCell>
        <mxCell id="Gv_cHLH_Avfb3xM3YmNq-64" value="" style="shape=partialRectangle;html=1;whiteSpace=wrap;connectable=0;fillColor=none;top=0;left=0;bottom=0;right=0;overflow=hidden;pointerEvents=1;strokeColor=inherit;fontSize=16;" vertex="1" parent="Gv_cHLH_Avfb3xM3YmNq-63">
          <mxGeometry width="40" height="30" as="geometry">
            <mxRectangle width="40" height="30" as="alternateBounds" />
          </mxGeometry>
        </mxCell>
        <mxCell id="Gv_cHLH_Avfb3xM3YmNq-65" value="UpdatedAt DateTime NN" style="shape=partialRectangle;html=1;whiteSpace=wrap;connectable=0;fillColor=none;top=0;left=0;bottom=0;right=0;align=left;spacingLeft=6;overflow=hidden;strokeColor=inherit;fontSize=16;" vertex="1" parent="Gv_cHLH_Avfb3xM3YmNq-63">
          <mxGeometry x="40" width="280" height="30" as="geometry">
            <mxRectangle width="280" height="30" as="alternateBounds" />
          </mxGeometry>
        </mxCell>
        <mxCell id="Gv_cHLH_Avfb3xM3YmNq-66" value="" style="shape=tableRow;horizontal=0;startSize=0;swimlaneHead=0;swimlaneBody=0;top=0;left=0;bottom=0;right=0;collapsible=0;dropTarget=0;fillColor=none;points=[[0,0.5],[1,0.5]];portConstraint=eastwest;strokeColor=inherit;fontSize=16;" vertex="1" parent="Gv_cHLH_Avfb3xM3YmNq-56">
          <mxGeometry y="120" width="320" height="30" as="geometry" />
        </mxCell>
        <mxCell id="Gv_cHLH_Avfb3xM3YmNq-67" value="" style="shape=partialRectangle;html=1;whiteSpace=wrap;connectable=0;fillColor=none;top=0;left=0;bottom=0;right=0;overflow=hidden;strokeColor=inherit;fontSize=16;" vertex="1" parent="Gv_cHLH_Avfb3xM3YmNq-66">
          <mxGeometry width="40" height="30" as="geometry">
            <mxRectangle width="40" height="30" as="alternateBounds" />
          </mxGeometry>
        </mxCell>
        <mxCell id="Gv_cHLH_Avfb3xM3YmNq-68" value="SelectedPlant1 varChar(255) NN" style="shape=partialRectangle;html=1;whiteSpace=wrap;connectable=0;fillColor=none;top=0;left=0;bottom=0;right=0;align=left;spacingLeft=6;overflow=hidden;strokeColor=inherit;fontSize=16;" vertex="1" parent="Gv_cHLH_Avfb3xM3YmNq-66">
          <mxGeometry x="40" width="280" height="30" as="geometry">
            <mxRectangle width="280" height="30" as="alternateBounds" />
          </mxGeometry>
        </mxCell>
        <mxCell id="Gv_cHLH_Avfb3xM3YmNq-78" value="" style="shape=tableRow;horizontal=0;startSize=0;swimlaneHead=0;swimlaneBody=0;top=0;left=0;bottom=0;right=0;collapsible=0;dropTarget=0;fillColor=none;points=[[0,0.5],[1,0.5]];portConstraint=eastwest;strokeColor=inherit;fontSize=16;" vertex="1" parent="Gv_cHLH_Avfb3xM3YmNq-56">
          <mxGeometry y="150" width="320" height="30" as="geometry" />
        </mxCell>
        <mxCell id="Gv_cHLH_Avfb3xM3YmNq-79" value="" style="shape=partialRectangle;html=1;whiteSpace=wrap;connectable=0;fillColor=none;top=0;left=0;bottom=0;right=0;overflow=hidden;strokeColor=inherit;fontSize=16;" vertex="1" parent="Gv_cHLH_Avfb3xM3YmNq-78">
          <mxGeometry width="40" height="30" as="geometry">
            <mxRectangle width="40" height="30" as="alternateBounds" />
          </mxGeometry>
        </mxCell>
        <mxCell id="Gv_cHLH_Avfb3xM3YmNq-80" value="SelectedPlant2 varChar(255) NN" style="shape=partialRectangle;html=1;whiteSpace=wrap;connectable=0;fillColor=none;top=0;left=0;bottom=0;right=0;align=left;spacingLeft=6;overflow=hidden;strokeColor=inherit;fontSize=16;" vertex="1" parent="Gv_cHLH_Avfb3xM3YmNq-78">
          <mxGeometry x="40" width="280" height="30" as="geometry">
            <mxRectangle width="280" height="30" as="alternateBounds" />
          </mxGeometry>
        </mxCell>
        <mxCell id="Gv_cHLH_Avfb3xM3YmNq-72" value="" style="shape=tableRow;horizontal=0;startSize=0;swimlaneHead=0;swimlaneBody=0;top=0;left=0;bottom=0;right=0;collapsible=0;dropTarget=0;fillColor=none;points=[[0,0.5],[1,0.5]];portConstraint=eastwest;strokeColor=inherit;fontSize=16;" vertex="1" parent="Gv_cHLH_Avfb3xM3YmNq-56">
          <mxGeometry y="180" width="320" height="30" as="geometry" />
        </mxCell>
        <mxCell id="Gv_cHLH_Avfb3xM3YmNq-73" value="" style="shape=partialRectangle;html=1;whiteSpace=wrap;connectable=0;fillColor=none;top=0;left=0;bottom=0;right=0;overflow=hidden;strokeColor=inherit;fontSize=16;" vertex="1" parent="Gv_cHLH_Avfb3xM3YmNq-72">
          <mxGeometry width="40" height="30" as="geometry">
            <mxRectangle width="40" height="30" as="alternateBounds" />
          </mxGeometry>
        </mxCell>
        <mxCell id="Gv_cHLH_Avfb3xM3YmNq-74" value="AutoMode bool NN" style="shape=partialRectangle;html=1;whiteSpace=wrap;connectable=0;fillColor=none;top=0;left=0;bottom=0;right=0;align=left;spacingLeft=6;overflow=hidden;strokeColor=inherit;fontSize=16;" vertex="1" parent="Gv_cHLH_Avfb3xM3YmNq-72">
          <mxGeometry x="40" width="280" height="30" as="geometry">
            <mxRectangle width="280" height="30" as="alternateBounds" />
          </mxGeometry>
        </mxCell>
        <mxCell id="Gv_cHLH_Avfb3xM3YmNq-75" value="" style="shape=tableRow;horizontal=0;startSize=0;swimlaneHead=0;swimlaneBody=0;top=0;left=0;bottom=0;right=0;collapsible=0;dropTarget=0;fillColor=none;points=[[0,0.5],[1,0.5]];portConstraint=eastwest;strokeColor=inherit;fontSize=16;" vertex="1" parent="Gv_cHLH_Avfb3xM3YmNq-56">
          <mxGeometry y="210" width="320" height="30" as="geometry" />
        </mxCell>
        <mxCell id="Gv_cHLH_Avfb3xM3YmNq-76" value="FK" style="shape=partialRectangle;html=1;whiteSpace=wrap;connectable=0;fillColor=none;top=0;left=0;bottom=0;right=0;overflow=hidden;strokeColor=inherit;fontSize=16;" vertex="1" parent="Gv_cHLH_Avfb3xM3YmNq-75">
          <mxGeometry width="40" height="30" as="geometry">
            <mxRectangle width="40" height="30" as="alternateBounds" />
          </mxGeometry>
        </mxCell>
        <mxCell id="Gv_cHLH_Avfb3xM3YmNq-77" value="UserId INT(11)" style="shape=partialRectangle;html=1;whiteSpace=wrap;connectable=0;fillColor=none;top=0;left=0;bottom=0;right=0;align=left;spacingLeft=6;overflow=hidden;strokeColor=inherit;fontSize=16;" vertex="1" parent="Gv_cHLH_Avfb3xM3YmNq-75">
          <mxGeometry x="40" width="280" height="30" as="geometry">
            <mxRectangle width="280" height="30" as="alternateBounds" />
          </mxGeometry>
        </mxCell>
        <mxCell id="Gv_cHLH_Avfb3xM3YmNq-81" value="User" style="shape=table;startSize=30;container=1;collapsible=0;childLayout=tableLayout;fixedRows=1;rowLines=0;fontStyle=0;strokeColor=default;fontSize=16;" vertex="1" parent="WIyWlLk6GJQsqaUBKTNV-1">
          <mxGeometry x="460" y="560" width="320" height="240" as="geometry" />
        </mxCell>
        <mxCell id="Gv_cHLH_Avfb3xM3YmNq-82" value="" style="shape=tableRow;horizontal=0;startSize=0;swimlaneHead=0;swimlaneBody=0;top=0;left=0;bottom=0;right=0;collapsible=0;dropTarget=0;fillColor=none;points=[[0,0.5],[1,0.5]];portConstraint=eastwest;strokeColor=inherit;fontSize=16;" vertex="1" parent="Gv_cHLH_Avfb3xM3YmNq-81">
          <mxGeometry y="30" width="320" height="30" as="geometry" />
        </mxCell>
        <mxCell id="Gv_cHLH_Avfb3xM3YmNq-83" value="PK" style="shape=partialRectangle;html=1;whiteSpace=wrap;connectable=0;fillColor=none;top=0;left=0;bottom=0;right=0;overflow=hidden;pointerEvents=1;strokeColor=inherit;fontSize=16;" vertex="1" parent="Gv_cHLH_Avfb3xM3YmNq-82">
          <mxGeometry width="40" height="30" as="geometry">
            <mxRectangle width="40" height="30" as="alternateBounds" />
          </mxGeometry>
        </mxCell>
        <mxCell id="Gv_cHLH_Avfb3xM3YmNq-84" value="Id INT(11) AI NN" style="shape=partialRectangle;html=1;whiteSpace=wrap;connectable=0;fillColor=none;top=0;left=0;bottom=0;right=0;align=left;spacingLeft=6;overflow=hidden;strokeColor=inherit;fontSize=16;" vertex="1" parent="Gv_cHLH_Avfb3xM3YmNq-82">
          <mxGeometry x="40" width="280" height="30" as="geometry">
            <mxRectangle width="280" height="30" as="alternateBounds" />
          </mxGeometry>
        </mxCell>
        <mxCell id="Gv_cHLH_Avfb3xM3YmNq-85" value="" style="shape=tableRow;horizontal=0;startSize=0;swimlaneHead=0;swimlaneBody=0;top=0;left=0;bottom=0;right=0;collapsible=0;dropTarget=0;fillColor=none;points=[[0,0.5],[1,0.5]];portConstraint=eastwest;strokeColor=inherit;fontSize=16;" vertex="1" parent="Gv_cHLH_Avfb3xM3YmNq-81">
          <mxGeometry y="60" width="320" height="30" as="geometry" />
        </mxCell>
        <mxCell id="Gv_cHLH_Avfb3xM3YmNq-86" value="" style="shape=partialRectangle;html=1;whiteSpace=wrap;connectable=0;fillColor=none;top=0;left=0;bottom=0;right=0;overflow=hidden;pointerEvents=1;strokeColor=inherit;fontSize=16;" vertex="1" parent="Gv_cHLH_Avfb3xM3YmNq-85">
          <mxGeometry width="40" height="30" as="geometry">
            <mxRectangle width="40" height="30" as="alternateBounds" />
          </mxGeometry>
        </mxCell>
        <mxCell id="Gv_cHLH_Avfb3xM3YmNq-87" value="CreatedAt DateTime NN" style="shape=partialRectangle;html=1;whiteSpace=wrap;connectable=0;fillColor=none;top=0;left=0;bottom=0;right=0;align=left;spacingLeft=6;overflow=hidden;strokeColor=inherit;fontSize=16;" vertex="1" parent="Gv_cHLH_Avfb3xM3YmNq-85">
          <mxGeometry x="40" width="280" height="30" as="geometry">
            <mxRectangle width="280" height="30" as="alternateBounds" />
          </mxGeometry>
        </mxCell>
        <mxCell id="Gv_cHLH_Avfb3xM3YmNq-88" value="" style="shape=tableRow;horizontal=0;startSize=0;swimlaneHead=0;swimlaneBody=0;top=0;left=0;bottom=0;right=0;collapsible=0;dropTarget=0;fillColor=none;points=[[0,0.5],[1,0.5]];portConstraint=eastwest;strokeColor=inherit;fontSize=16;" vertex="1" parent="Gv_cHLH_Avfb3xM3YmNq-81">
          <mxGeometry y="90" width="320" height="30" as="geometry" />
        </mxCell>
        <mxCell id="Gv_cHLH_Avfb3xM3YmNq-89" value="" style="shape=partialRectangle;html=1;whiteSpace=wrap;connectable=0;fillColor=none;top=0;left=0;bottom=0;right=0;overflow=hidden;pointerEvents=1;strokeColor=inherit;fontSize=16;" vertex="1" parent="Gv_cHLH_Avfb3xM3YmNq-88">
          <mxGeometry width="40" height="30" as="geometry">
            <mxRectangle width="40" height="30" as="alternateBounds" />
          </mxGeometry>
        </mxCell>
        <mxCell id="Gv_cHLH_Avfb3xM3YmNq-90" value="UpdatedAt DateTime NN" style="shape=partialRectangle;html=1;whiteSpace=wrap;connectable=0;fillColor=none;top=0;left=0;bottom=0;right=0;align=left;spacingLeft=6;overflow=hidden;strokeColor=inherit;fontSize=16;" vertex="1" parent="Gv_cHLH_Avfb3xM3YmNq-88">
          <mxGeometry x="40" width="280" height="30" as="geometry">
            <mxRectangle width="280" height="30" as="alternateBounds" />
          </mxGeometry>
        </mxCell>
        <mxCell id="Gv_cHLH_Avfb3xM3YmNq-91" value="" style="shape=tableRow;horizontal=0;startSize=0;swimlaneHead=0;swimlaneBody=0;top=0;left=0;bottom=0;right=0;collapsible=0;dropTarget=0;fillColor=none;points=[[0,0.5],[1,0.5]];portConstraint=eastwest;strokeColor=inherit;fontSize=16;" vertex="1" parent="Gv_cHLH_Avfb3xM3YmNq-81">
          <mxGeometry y="120" width="320" height="30" as="geometry" />
        </mxCell>
        <mxCell id="Gv_cHLH_Avfb3xM3YmNq-92" value="" style="shape=partialRectangle;html=1;whiteSpace=wrap;connectable=0;fillColor=none;top=0;left=0;bottom=0;right=0;overflow=hidden;strokeColor=inherit;fontSize=16;" vertex="1" parent="Gv_cHLH_Avfb3xM3YmNq-91">
          <mxGeometry width="40" height="30" as="geometry">
            <mxRectangle width="40" height="30" as="alternateBounds" />
          </mxGeometry>
        </mxCell>
        <mxCell id="Gv_cHLH_Avfb3xM3YmNq-93" value="Email varChar(255) NN" style="shape=partialRectangle;html=1;whiteSpace=wrap;connectable=0;fillColor=none;top=0;left=0;bottom=0;right=0;align=left;spacingLeft=6;overflow=hidden;strokeColor=inherit;fontSize=16;" vertex="1" parent="Gv_cHLH_Avfb3xM3YmNq-91">
          <mxGeometry x="40" width="280" height="30" as="geometry">
            <mxRectangle width="280" height="30" as="alternateBounds" />
          </mxGeometry>
        </mxCell>
        <mxCell id="Gv_cHLH_Avfb3xM3YmNq-94" value="" style="shape=tableRow;horizontal=0;startSize=0;swimlaneHead=0;swimlaneBody=0;top=0;left=0;bottom=0;right=0;collapsible=0;dropTarget=0;fillColor=none;points=[[0,0.5],[1,0.5]];portConstraint=eastwest;strokeColor=inherit;fontSize=16;" vertex="1" parent="Gv_cHLH_Avfb3xM3YmNq-81">
          <mxGeometry y="150" width="320" height="30" as="geometry" />
        </mxCell>
        <mxCell id="Gv_cHLH_Avfb3xM3YmNq-95" value="" style="shape=partialRectangle;html=1;whiteSpace=wrap;connectable=0;fillColor=none;top=0;left=0;bottom=0;right=0;overflow=hidden;strokeColor=inherit;fontSize=16;" vertex="1" parent="Gv_cHLH_Avfb3xM3YmNq-94">
          <mxGeometry width="40" height="30" as="geometry">
            <mxRectangle width="40" height="30" as="alternateBounds" />
          </mxGeometry>
        </mxCell>
        <mxCell id="Gv_cHLH_Avfb3xM3YmNq-96" value="Username varChar(255) NN" style="shape=partialRectangle;html=1;whiteSpace=wrap;connectable=0;fillColor=none;top=0;left=0;bottom=0;right=0;align=left;spacingLeft=6;overflow=hidden;strokeColor=inherit;fontSize=16;" vertex="1" parent="Gv_cHLH_Avfb3xM3YmNq-94">
          <mxGeometry x="40" width="280" height="30" as="geometry">
            <mxRectangle width="280" height="30" as="alternateBounds" />
          </mxGeometry>
        </mxCell>
        <mxCell id="Gv_cHLH_Avfb3xM3YmNq-97" value="" style="shape=tableRow;horizontal=0;startSize=0;swimlaneHead=0;swimlaneBody=0;top=0;left=0;bottom=0;right=0;collapsible=0;dropTarget=0;fillColor=none;points=[[0,0.5],[1,0.5]];portConstraint=eastwest;strokeColor=inherit;fontSize=16;" vertex="1" parent="Gv_cHLH_Avfb3xM3YmNq-81">
          <mxGeometry y="180" width="320" height="30" as="geometry" />
        </mxCell>
        <mxCell id="Gv_cHLH_Avfb3xM3YmNq-98" value="" style="shape=partialRectangle;html=1;whiteSpace=wrap;connectable=0;fillColor=none;top=0;left=0;bottom=0;right=0;overflow=hidden;strokeColor=inherit;fontSize=16;" vertex="1" parent="Gv_cHLH_Avfb3xM3YmNq-97">
          <mxGeometry width="40" height="30" as="geometry">
            <mxRectangle width="40" height="30" as="alternateBounds" />
          </mxGeometry>
        </mxCell>
        <mxCell id="Gv_cHLH_Avfb3xM3YmNq-99" value="Password varChar(255) NN" style="shape=partialRectangle;html=1;whiteSpace=wrap;connectable=0;fillColor=none;top=0;left=0;bottom=0;right=0;align=left;spacingLeft=6;overflow=hidden;strokeColor=inherit;fontSize=16;" vertex="1" parent="Gv_cHLH_Avfb3xM3YmNq-97">
          <mxGeometry x="40" width="280" height="30" as="geometry">
            <mxRectangle width="280" height="30" as="alternateBounds" />
          </mxGeometry>
        </mxCell>
        <mxCell id="Gv_cHLH_Avfb3xM3YmNq-100" value="" style="shape=tableRow;horizontal=0;startSize=0;swimlaneHead=0;swimlaneBody=0;top=0;left=0;bottom=0;right=0;collapsible=0;dropTarget=0;fillColor=none;points=[[0,0.5],[1,0.5]];portConstraint=eastwest;strokeColor=inherit;fontSize=16;" vertex="1" parent="Gv_cHLH_Avfb3xM3YmNq-81">
          <mxGeometry y="210" width="320" height="30" as="geometry" />
        </mxCell>
        <mxCell id="Gv_cHLH_Avfb3xM3YmNq-101" value="" style="shape=partialRectangle;html=1;whiteSpace=wrap;connectable=0;fillColor=none;top=0;left=0;bottom=0;right=0;overflow=hidden;strokeColor=inherit;fontSize=16;" vertex="1" parent="Gv_cHLH_Avfb3xM3YmNq-100">
          <mxGeometry width="40" height="30" as="geometry">
            <mxRectangle width="40" height="30" as="alternateBounds" />
          </mxGeometry>
        </mxCell>
        <mxCell id="Gv_cHLH_Avfb3xM3YmNq-102" value="Salt varChar(255) NN" style="shape=partialRectangle;html=1;whiteSpace=wrap;connectable=0;fillColor=none;top=0;left=0;bottom=0;right=0;align=left;spacingLeft=6;overflow=hidden;strokeColor=inherit;fontSize=16;" vertex="1" parent="Gv_cHLH_Avfb3xM3YmNq-100">
          <mxGeometry x="40" width="280" height="30" as="geometry">
            <mxRectangle width="280" height="30" as="alternateBounds" />
          </mxGeometry>
        </mxCell>
        <mxCell id="Gv_cHLH_Avfb3xM3YmNq-105" style="edgeStyle=orthogonalEdgeStyle;rounded=0;orthogonalLoop=1;jettySize=auto;html=1;exitX=1;exitY=0.5;exitDx=0;exitDy=0;entryX=0;entryY=0.5;entryDx=0;entryDy=0;startArrow=ERzeroToMany;startFill=0;endArrow=ERone;endFill=0;" edge="1" parent="WIyWlLk6GJQsqaUBKTNV-1" source="eQX2NRXdBQSOmsmhlRly-24" target="Gv_cHLH_Avfb3xM3YmNq-82">
          <mxGeometry relative="1" as="geometry" />
        </mxCell>
        <mxCell id="Gv_cHLH_Avfb3xM3YmNq-106" style="edgeStyle=orthogonalEdgeStyle;rounded=0;orthogonalLoop=1;jettySize=auto;html=1;entryX=1;entryY=0.5;entryDx=0;entryDy=0;startArrow=ERone;startFill=0;endArrow=ERone;endFill=0;" edge="1" parent="WIyWlLk6GJQsqaUBKTNV-1" source="Gv_cHLH_Avfb3xM3YmNq-75" target="Gv_cHLH_Avfb3xM3YmNq-82">
          <mxGeometry relative="1" as="geometry" />
        </mxCell>
        <mxCell id="Gv_cHLH_Avfb3xM3YmNq-107" style="edgeStyle=orthogonalEdgeStyle;rounded=0;orthogonalLoop=1;jettySize=auto;html=1;exitX=0;exitY=0.5;exitDx=0;exitDy=0;entryX=1;entryY=0.5;entryDx=0;entryDy=0;startArrow=ERone;startFill=0;endArrow=ERone;endFill=0;" edge="1" parent="WIyWlLk6GJQsqaUBKTNV-1" source="Gv_cHLH_Avfb3xM3YmNq-10" target="Gv_cHLH_Avfb3xM3YmNq-82">
          <mxGeometry relative="1" as="geometry" />
        </mxCell>
        <mxCell id="Gv_cHLH_Avfb3xM3YmNq-108" style="edgeStyle=orthogonalEdgeStyle;rounded=0;orthogonalLoop=1;jettySize=auto;html=1;exitX=1;exitY=0.5;exitDx=0;exitDy=0;entryX=0;entryY=0.5;entryDx=0;entryDy=0;startArrow=ERzeroToOne;startFill=0;endArrow=ERone;endFill=0;" edge="1" parent="WIyWlLk6GJQsqaUBKTNV-1" source="Gv_cHLH_Avfb3xM3YmNq-53" target="Gv_cHLH_Avfb3xM3YmNq-1">
          <mxGeometry relative="1" as="geometry">
            <Array as="points">
              <mxPoint x="800" y="445" />
              <mxPoint x="800" y="265" />
            </Array>
          </mxGeometry>
        </mxCell>
        <mxCell id="Gv_cHLH_Avfb3xM3YmNq-109" value="Plant" style="shape=table;startSize=30;container=1;collapsible=0;childLayout=tableLayout;fixedRows=1;rowLines=0;fontStyle=0;strokeColor=default;fontSize=16;" vertex="1" parent="WIyWlLk6GJQsqaUBKTNV-1">
          <mxGeometry x="50" y="1190" width="320" height="240" as="geometry" />
        </mxCell>
        <mxCell id="Gv_cHLH_Avfb3xM3YmNq-110" value="" style="shape=tableRow;horizontal=0;startSize=0;swimlaneHead=0;swimlaneBody=0;top=0;left=0;bottom=0;right=0;collapsible=0;dropTarget=0;fillColor=none;points=[[0,0.5],[1,0.5]];portConstraint=eastwest;strokeColor=inherit;fontSize=16;" vertex="1" parent="Gv_cHLH_Avfb3xM3YmNq-109">
          <mxGeometry y="30" width="320" height="30" as="geometry" />
        </mxCell>
        <mxCell id="Gv_cHLH_Avfb3xM3YmNq-111" value="" style="shape=partialRectangle;html=1;whiteSpace=wrap;connectable=0;fillColor=none;top=0;left=0;bottom=0;right=0;overflow=hidden;pointerEvents=1;strokeColor=inherit;fontSize=16;" vertex="1" parent="Gv_cHLH_Avfb3xM3YmNq-110">
          <mxGeometry width="40" height="30" as="geometry">
            <mxRectangle width="40" height="30" as="alternateBounds" />
          </mxGeometry>
        </mxCell>
        <mxCell id="Gv_cHLH_Avfb3xM3YmNq-112" value="Id" style="shape=partialRectangle;html=1;whiteSpace=wrap;connectable=0;fillColor=none;top=0;left=0;bottom=0;right=0;align=left;spacingLeft=6;overflow=hidden;strokeColor=inherit;fontSize=16;" vertex="1" parent="Gv_cHLH_Avfb3xM3YmNq-110">
          <mxGeometry x="40" width="280" height="30" as="geometry">
            <mxRectangle width="280" height="30" as="alternateBounds" />
          </mxGeometry>
        </mxCell>
        <mxCell id="Gv_cHLH_Avfb3xM3YmNq-113" value="" style="shape=tableRow;horizontal=0;startSize=0;swimlaneHead=0;swimlaneBody=0;top=0;left=0;bottom=0;right=0;collapsible=0;dropTarget=0;fillColor=none;points=[[0,0.5],[1,0.5]];portConstraint=eastwest;strokeColor=inherit;fontSize=16;" vertex="1" parent="Gv_cHLH_Avfb3xM3YmNq-109">
          <mxGeometry y="60" width="320" height="30" as="geometry" />
        </mxCell>
        <mxCell id="Gv_cHLH_Avfb3xM3YmNq-114" value="" style="shape=partialRectangle;html=1;whiteSpace=wrap;connectable=0;fillColor=none;top=0;left=0;bottom=0;right=0;overflow=hidden;pointerEvents=1;strokeColor=inherit;fontSize=16;" vertex="1" parent="Gv_cHLH_Avfb3xM3YmNq-113">
          <mxGeometry width="40" height="30" as="geometry">
            <mxRectangle width="40" height="30" as="alternateBounds" />
          </mxGeometry>
        </mxCell>
        <mxCell id="Gv_cHLH_Avfb3xM3YmNq-115" value="CreatedAt" style="shape=partialRectangle;html=1;whiteSpace=wrap;connectable=0;fillColor=none;top=0;left=0;bottom=0;right=0;align=left;spacingLeft=6;overflow=hidden;strokeColor=inherit;fontSize=16;" vertex="1" parent="Gv_cHLH_Avfb3xM3YmNq-113">
          <mxGeometry x="40" width="280" height="30" as="geometry">
            <mxRectangle width="280" height="30" as="alternateBounds" />
          </mxGeometry>
        </mxCell>
        <mxCell id="Gv_cHLH_Avfb3xM3YmNq-116" value="" style="shape=tableRow;horizontal=0;startSize=0;swimlaneHead=0;swimlaneBody=0;top=0;left=0;bottom=0;right=0;collapsible=0;dropTarget=0;fillColor=none;points=[[0,0.5],[1,0.5]];portConstraint=eastwest;strokeColor=inherit;fontSize=16;" vertex="1" parent="Gv_cHLH_Avfb3xM3YmNq-109">
          <mxGeometry y="90" width="320" height="30" as="geometry" />
        </mxCell>
        <mxCell id="Gv_cHLH_Avfb3xM3YmNq-117" value="" style="shape=partialRectangle;html=1;whiteSpace=wrap;connectable=0;fillColor=none;top=0;left=0;bottom=0;right=0;overflow=hidden;pointerEvents=1;strokeColor=inherit;fontSize=16;" vertex="1" parent="Gv_cHLH_Avfb3xM3YmNq-116">
          <mxGeometry width="40" height="30" as="geometry">
            <mxRectangle width="40" height="30" as="alternateBounds" />
          </mxGeometry>
        </mxCell>
        <mxCell id="Gv_cHLH_Avfb3xM3YmNq-118" value="UpdatedAt" style="shape=partialRectangle;html=1;whiteSpace=wrap;connectable=0;fillColor=none;top=0;left=0;bottom=0;right=0;align=left;spacingLeft=6;overflow=hidden;strokeColor=inherit;fontSize=16;" vertex="1" parent="Gv_cHLH_Avfb3xM3YmNq-116">
          <mxGeometry x="40" width="280" height="30" as="geometry">
            <mxRectangle width="280" height="30" as="alternateBounds" />
          </mxGeometry>
        </mxCell>
        <mxCell id="Gv_cHLH_Avfb3xM3YmNq-119" value="" style="shape=tableRow;horizontal=0;startSize=0;swimlaneHead=0;swimlaneBody=0;top=0;left=0;bottom=0;right=0;collapsible=0;dropTarget=0;fillColor=none;points=[[0,0.5],[1,0.5]];portConstraint=eastwest;strokeColor=inherit;fontSize=16;" vertex="1" parent="Gv_cHLH_Avfb3xM3YmNq-109">
          <mxGeometry y="120" width="320" height="30" as="geometry" />
        </mxCell>
        <mxCell id="Gv_cHLH_Avfb3xM3YmNq-120" value="" style="shape=partialRectangle;html=1;whiteSpace=wrap;connectable=0;fillColor=none;top=0;left=0;bottom=0;right=0;overflow=hidden;pointerEvents=1;strokeColor=inherit;fontSize=16;" vertex="1" parent="Gv_cHLH_Avfb3xM3YmNq-119">
          <mxGeometry width="40" height="30" as="geometry">
            <mxRectangle width="40" height="30" as="alternateBounds" />
          </mxGeometry>
        </mxCell>
        <mxCell id="Gv_cHLH_Avfb3xM3YmNq-121" value="PlantName" style="shape=partialRectangle;html=1;whiteSpace=wrap;connectable=0;fillColor=none;top=0;left=0;bottom=0;right=0;align=left;spacingLeft=6;overflow=hidden;strokeColor=inherit;fontSize=16;" vertex="1" parent="Gv_cHLH_Avfb3xM3YmNq-119">
          <mxGeometry x="40" width="280" height="30" as="geometry">
            <mxRectangle width="280" height="30" as="alternateBounds" />
          </mxGeometry>
        </mxCell>
        <mxCell id="Gv_cHLH_Avfb3xM3YmNq-122" value="" style="shape=tableRow;horizontal=0;startSize=0;swimlaneHead=0;swimlaneBody=0;top=0;left=0;bottom=0;right=0;collapsible=0;dropTarget=0;fillColor=none;points=[[0,0.5],[1,0.5]];portConstraint=eastwest;strokeColor=inherit;fontSize=16;" vertex="1" parent="Gv_cHLH_Avfb3xM3YmNq-109">
          <mxGeometry y="150" width="320" height="30" as="geometry" />
        </mxCell>
        <mxCell id="Gv_cHLH_Avfb3xM3YmNq-123" value="" style="shape=partialRectangle;html=1;whiteSpace=wrap;connectable=0;fillColor=none;top=0;left=0;bottom=0;right=0;overflow=hidden;strokeColor=inherit;fontSize=16;" vertex="1" parent="Gv_cHLH_Avfb3xM3YmNq-122">
          <mxGeometry width="40" height="30" as="geometry">
            <mxRectangle width="40" height="30" as="alternateBounds" />
          </mxGeometry>
        </mxCell>
        <mxCell id="Gv_cHLH_Avfb3xM3YmNq-124" value="MinWaterLevel" style="shape=partialRectangle;html=1;whiteSpace=wrap;connectable=0;fillColor=none;top=0;left=0;bottom=0;right=0;align=left;spacingLeft=6;overflow=hidden;strokeColor=inherit;fontSize=16;" vertex="1" parent="Gv_cHLH_Avfb3xM3YmNq-122">
          <mxGeometry x="40" width="280" height="30" as="geometry">
            <mxRectangle width="280" height="30" as="alternateBounds" />
          </mxGeometry>
        </mxCell>
        <mxCell id="Gv_cHLH_Avfb3xM3YmNq-125" value="" style="shape=tableRow;horizontal=0;startSize=0;swimlaneHead=0;swimlaneBody=0;top=0;left=0;bottom=0;right=0;collapsible=0;dropTarget=0;fillColor=none;points=[[0,0.5],[1,0.5]];portConstraint=eastwest;strokeColor=inherit;fontSize=16;" vertex="1" parent="Gv_cHLH_Avfb3xM3YmNq-109">
          <mxGeometry y="180" width="320" height="30" as="geometry" />
        </mxCell>
        <mxCell id="Gv_cHLH_Avfb3xM3YmNq-126" value="" style="shape=partialRectangle;html=1;whiteSpace=wrap;connectable=0;fillColor=none;top=0;left=0;bottom=0;right=0;overflow=hidden;strokeColor=inherit;fontSize=16;" vertex="1" parent="Gv_cHLH_Avfb3xM3YmNq-125">
          <mxGeometry width="40" height="30" as="geometry">
            <mxRectangle width="40" height="30" as="alternateBounds" />
          </mxGeometry>
        </mxCell>
        <mxCell id="Gv_cHLH_Avfb3xM3YmNq-127" value="MaxWaterLevel" style="shape=partialRectangle;html=1;whiteSpace=wrap;connectable=0;fillColor=none;top=0;left=0;bottom=0;right=0;align=left;spacingLeft=6;overflow=hidden;strokeColor=inherit;fontSize=16;" vertex="1" parent="Gv_cHLH_Avfb3xM3YmNq-125">
          <mxGeometry x="40" width="280" height="30" as="geometry">
            <mxRectangle width="280" height="30" as="alternateBounds" />
          </mxGeometry>
        </mxCell>
        <mxCell id="Gv_cHLH_Avfb3xM3YmNq-128" value="" style="shape=tableRow;horizontal=0;startSize=0;swimlaneHead=0;swimlaneBody=0;top=0;left=0;bottom=0;right=0;collapsible=0;dropTarget=0;fillColor=none;points=[[0,0.5],[1,0.5]];portConstraint=eastwest;strokeColor=inherit;fontSize=16;" vertex="1" parent="Gv_cHLH_Avfb3xM3YmNq-109">
          <mxGeometry y="210" width="320" height="30" as="geometry" />
        </mxCell>
        <mxCell id="Gv_cHLH_Avfb3xM3YmNq-129" value="" style="shape=partialRectangle;html=1;whiteSpace=wrap;connectable=0;fillColor=none;top=0;left=0;bottom=0;right=0;overflow=hidden;strokeColor=inherit;fontSize=16;" vertex="1" parent="Gv_cHLH_Avfb3xM3YmNq-128">
          <mxGeometry width="40" height="30" as="geometry">
            <mxRectangle width="40" height="30" as="alternateBounds" />
          </mxGeometry>
        </mxCell>
        <mxCell id="Gv_cHLH_Avfb3xM3YmNq-130" value="UserId" style="shape=partialRectangle;html=1;whiteSpace=wrap;connectable=0;fillColor=none;top=0;left=0;bottom=0;right=0;align=left;spacingLeft=6;overflow=hidden;strokeColor=inherit;fontSize=16;" vertex="1" parent="Gv_cHLH_Avfb3xM3YmNq-128">
          <mxGeometry x="40" width="280" height="30" as="geometry">
            <mxRectangle width="280" height="30" as="alternateBounds" />
          </mxGeometry>
        </mxCell>
        <mxCell id="Gv_cHLH_Avfb3xM3YmNq-133" value="Arduino" style="shape=table;startSize=30;container=1;collapsible=0;childLayout=tableLayout;fixedRows=1;rowLines=0;fontStyle=0;strokeColor=default;fontSize=16;" vertex="1" parent="WIyWlLk6GJQsqaUBKTNV-1">
          <mxGeometry x="886" y="1030" width="340" height="210" as="geometry" />
        </mxCell>
        <mxCell id="Gv_cHLH_Avfb3xM3YmNq-134" value="" style="shape=tableRow;horizontal=0;startSize=0;swimlaneHead=0;swimlaneBody=0;top=0;left=0;bottom=0;right=0;collapsible=0;dropTarget=0;fillColor=none;points=[[0,0.5],[1,0.5]];portConstraint=eastwest;strokeColor=inherit;fontSize=16;" vertex="1" parent="Gv_cHLH_Avfb3xM3YmNq-133">
          <mxGeometry y="30" width="340" height="30" as="geometry" />
        </mxCell>
        <mxCell id="Gv_cHLH_Avfb3xM3YmNq-135" value="" style="shape=partialRectangle;html=1;whiteSpace=wrap;connectable=0;fillColor=none;top=0;left=0;bottom=0;right=0;overflow=hidden;pointerEvents=1;strokeColor=inherit;fontSize=16;" vertex="1" parent="Gv_cHLH_Avfb3xM3YmNq-134">
          <mxGeometry width="40" height="30" as="geometry">
            <mxRectangle width="40" height="30" as="alternateBounds" />
          </mxGeometry>
        </mxCell>
        <mxCell id="Gv_cHLH_Avfb3xM3YmNq-136" value="Id&amp;nbsp;" style="shape=partialRectangle;html=1;whiteSpace=wrap;connectable=0;fillColor=none;top=0;left=0;bottom=0;right=0;align=left;spacingLeft=6;overflow=hidden;strokeColor=inherit;fontSize=16;" vertex="1" parent="Gv_cHLH_Avfb3xM3YmNq-134">
          <mxGeometry x="40" width="300" height="30" as="geometry">
            <mxRectangle width="300" height="30" as="alternateBounds" />
          </mxGeometry>
        </mxCell>
        <mxCell id="Gv_cHLH_Avfb3xM3YmNq-137" value="" style="shape=tableRow;horizontal=0;startSize=0;swimlaneHead=0;swimlaneBody=0;top=0;left=0;bottom=0;right=0;collapsible=0;dropTarget=0;fillColor=none;points=[[0,0.5],[1,0.5]];portConstraint=eastwest;strokeColor=inherit;fontSize=16;" vertex="1" parent="Gv_cHLH_Avfb3xM3YmNq-133">
          <mxGeometry y="60" width="340" height="30" as="geometry" />
        </mxCell>
        <mxCell id="Gv_cHLH_Avfb3xM3YmNq-138" value="" style="shape=partialRectangle;html=1;whiteSpace=wrap;connectable=0;fillColor=none;top=0;left=0;bottom=0;right=0;overflow=hidden;strokeColor=inherit;fontSize=16;" vertex="1" parent="Gv_cHLH_Avfb3xM3YmNq-137">
          <mxGeometry width="40" height="30" as="geometry">
            <mxRectangle width="40" height="30" as="alternateBounds" />
          </mxGeometry>
        </mxCell>
        <mxCell id="Gv_cHLH_Avfb3xM3YmNq-139" value="CreatedAt" style="shape=partialRectangle;html=1;whiteSpace=wrap;connectable=0;fillColor=none;top=0;left=0;bottom=0;right=0;align=left;spacingLeft=6;overflow=hidden;strokeColor=inherit;fontSize=16;" vertex="1" parent="Gv_cHLH_Avfb3xM3YmNq-137">
          <mxGeometry x="40" width="300" height="30" as="geometry">
            <mxRectangle width="300" height="30" as="alternateBounds" />
          </mxGeometry>
        </mxCell>
        <mxCell id="Gv_cHLH_Avfb3xM3YmNq-140" value="" style="shape=tableRow;horizontal=0;startSize=0;swimlaneHead=0;swimlaneBody=0;top=0;left=0;bottom=0;right=0;collapsible=0;dropTarget=0;fillColor=none;points=[[0,0.5],[1,0.5]];portConstraint=eastwest;strokeColor=inherit;fontSize=16;" vertex="1" parent="Gv_cHLH_Avfb3xM3YmNq-133">
          <mxGeometry y="90" width="340" height="30" as="geometry" />
        </mxCell>
        <mxCell id="Gv_cHLH_Avfb3xM3YmNq-141" value="" style="shape=partialRectangle;html=1;whiteSpace=wrap;connectable=0;fillColor=none;top=0;left=0;bottom=0;right=0;overflow=hidden;strokeColor=inherit;fontSize=16;" vertex="1" parent="Gv_cHLH_Avfb3xM3YmNq-140">
          <mxGeometry width="40" height="30" as="geometry">
            <mxRectangle width="40" height="30" as="alternateBounds" />
          </mxGeometry>
        </mxCell>
        <mxCell id="Gv_cHLH_Avfb3xM3YmNq-142" value="UpdatedAt" style="shape=partialRectangle;html=1;whiteSpace=wrap;connectable=0;fillColor=none;top=0;left=0;bottom=0;right=0;align=left;spacingLeft=6;overflow=hidden;strokeColor=inherit;fontSize=16;" vertex="1" parent="Gv_cHLH_Avfb3xM3YmNq-140">
          <mxGeometry x="40" width="300" height="30" as="geometry">
            <mxRectangle width="300" height="30" as="alternateBounds" />
          </mxGeometry>
        </mxCell>
        <mxCell id="Gv_cHLH_Avfb3xM3YmNq-143" value="" style="shape=tableRow;horizontal=0;startSize=0;swimlaneHead=0;swimlaneBody=0;top=0;left=0;bottom=0;right=0;collapsible=0;dropTarget=0;fillColor=none;points=[[0,0.5],[1,0.5]];portConstraint=eastwest;strokeColor=inherit;fontSize=16;" vertex="1" parent="Gv_cHLH_Avfb3xM3YmNq-133">
          <mxGeometry y="120" width="340" height="30" as="geometry" />
        </mxCell>
        <mxCell id="Gv_cHLH_Avfb3xM3YmNq-144" value="" style="shape=partialRectangle;html=1;whiteSpace=wrap;connectable=0;fillColor=none;top=0;left=0;bottom=0;right=0;overflow=hidden;strokeColor=inherit;fontSize=16;" vertex="1" parent="Gv_cHLH_Avfb3xM3YmNq-143">
          <mxGeometry width="40" height="30" as="geometry">
            <mxRectangle width="40" height="30" as="alternateBounds" />
          </mxGeometry>
        </mxCell>
        <mxCell id="Gv_cHLH_Avfb3xM3YmNq-145" value="SensorId1" style="shape=partialRectangle;html=1;whiteSpace=wrap;connectable=0;fillColor=none;top=0;left=0;bottom=0;right=0;align=left;spacingLeft=6;overflow=hidden;strokeColor=inherit;fontSize=16;" vertex="1" parent="Gv_cHLH_Avfb3xM3YmNq-143">
          <mxGeometry x="40" width="300" height="30" as="geometry">
            <mxRectangle width="300" height="30" as="alternateBounds" />
          </mxGeometry>
        </mxCell>
        <mxCell id="Gv_cHLH_Avfb3xM3YmNq-146" value="" style="shape=tableRow;horizontal=0;startSize=0;swimlaneHead=0;swimlaneBody=0;top=0;left=0;bottom=0;right=0;collapsible=0;dropTarget=0;fillColor=none;points=[[0,0.5],[1,0.5]];portConstraint=eastwest;strokeColor=inherit;fontSize=16;" vertex="1" parent="Gv_cHLH_Avfb3xM3YmNq-133">
          <mxGeometry y="150" width="340" height="30" as="geometry" />
        </mxCell>
        <mxCell id="Gv_cHLH_Avfb3xM3YmNq-147" value="" style="shape=partialRectangle;html=1;whiteSpace=wrap;connectable=0;fillColor=none;top=0;left=0;bottom=0;right=0;overflow=hidden;strokeColor=inherit;fontSize=16;" vertex="1" parent="Gv_cHLH_Avfb3xM3YmNq-146">
          <mxGeometry width="40" height="30" as="geometry">
            <mxRectangle width="40" height="30" as="alternateBounds" />
          </mxGeometry>
        </mxCell>
        <mxCell id="Gv_cHLH_Avfb3xM3YmNq-148" value="SensorId2" style="shape=partialRectangle;html=1;whiteSpace=wrap;connectable=0;fillColor=none;top=0;left=0;bottom=0;right=0;align=left;spacingLeft=6;overflow=hidden;strokeColor=inherit;fontSize=16;" vertex="1" parent="Gv_cHLH_Avfb3xM3YmNq-146">
          <mxGeometry x="40" width="300" height="30" as="geometry">
            <mxRectangle width="300" height="30" as="alternateBounds" />
          </mxGeometry>
        </mxCell>
        <mxCell id="Gv_cHLH_Avfb3xM3YmNq-149" value="" style="shape=tableRow;horizontal=0;startSize=0;swimlaneHead=0;swimlaneBody=0;top=0;left=0;bottom=0;right=0;collapsible=0;dropTarget=0;fillColor=none;points=[[0,0.5],[1,0.5]];portConstraint=eastwest;strokeColor=inherit;fontSize=16;" vertex="1" parent="Gv_cHLH_Avfb3xM3YmNq-133">
          <mxGeometry y="180" width="340" height="30" as="geometry" />
        </mxCell>
        <mxCell id="Gv_cHLH_Avfb3xM3YmNq-150" value="" style="shape=partialRectangle;html=1;whiteSpace=wrap;connectable=0;fillColor=none;top=0;left=0;bottom=0;right=0;overflow=hidden;strokeColor=inherit;fontSize=16;" vertex="1" parent="Gv_cHLH_Avfb3xM3YmNq-149">
          <mxGeometry width="40" height="30" as="geometry">
            <mxRectangle width="40" height="30" as="alternateBounds" />
          </mxGeometry>
        </mxCell>
        <mxCell id="Gv_cHLH_Avfb3xM3YmNq-151" value="UserId" style="shape=partialRectangle;html=1;whiteSpace=wrap;connectable=0;fillColor=none;top=0;left=0;bottom=0;right=0;align=left;spacingLeft=6;overflow=hidden;strokeColor=inherit;fontSize=16;" vertex="1" parent="Gv_cHLH_Avfb3xM3YmNq-149">
          <mxGeometry x="40" width="300" height="30" as="geometry">
            <mxRectangle width="300" height="30" as="alternateBounds" />
          </mxGeometry>
        </mxCell>
        <mxCell id="Gv_cHLH_Avfb3xM3YmNq-152" value="PlantOverview" style="shape=table;startSize=30;container=1;collapsible=0;childLayout=tableLayout;fixedRows=1;rowLines=0;fontStyle=0;strokeColor=default;fontSize=16;" vertex="1" parent="WIyWlLk6GJQsqaUBKTNV-1">
          <mxGeometry x="450" y="1030" width="320" height="240" as="geometry" />
        </mxCell>
        <mxCell id="Gv_cHLH_Avfb3xM3YmNq-153" value="" style="shape=tableRow;horizontal=0;startSize=0;swimlaneHead=0;swimlaneBody=0;top=0;left=0;bottom=0;right=0;collapsible=0;dropTarget=0;fillColor=none;points=[[0,0.5],[1,0.5]];portConstraint=eastwest;strokeColor=inherit;fontSize=16;" vertex="1" parent="Gv_cHLH_Avfb3xM3YmNq-152">
          <mxGeometry y="30" width="320" height="30" as="geometry" />
        </mxCell>
        <mxCell id="Gv_cHLH_Avfb3xM3YmNq-154" value="" style="shape=partialRectangle;html=1;whiteSpace=wrap;connectable=0;fillColor=none;top=0;left=0;bottom=0;right=0;overflow=hidden;pointerEvents=1;strokeColor=inherit;fontSize=16;" vertex="1" parent="Gv_cHLH_Avfb3xM3YmNq-153">
          <mxGeometry width="40" height="30" as="geometry">
            <mxRectangle width="40" height="30" as="alternateBounds" />
          </mxGeometry>
        </mxCell>
        <mxCell id="Gv_cHLH_Avfb3xM3YmNq-155" value="Id" style="shape=partialRectangle;html=1;whiteSpace=wrap;connectable=0;fillColor=none;top=0;left=0;bottom=0;right=0;align=left;spacingLeft=6;overflow=hidden;strokeColor=inherit;fontSize=16;" vertex="1" parent="Gv_cHLH_Avfb3xM3YmNq-153">
          <mxGeometry x="40" width="280" height="30" as="geometry">
            <mxRectangle width="280" height="30" as="alternateBounds" />
          </mxGeometry>
        </mxCell>
        <mxCell id="Gv_cHLH_Avfb3xM3YmNq-156" value="" style="shape=tableRow;horizontal=0;startSize=0;swimlaneHead=0;swimlaneBody=0;top=0;left=0;bottom=0;right=0;collapsible=0;dropTarget=0;fillColor=none;points=[[0,0.5],[1,0.5]];portConstraint=eastwest;strokeColor=inherit;fontSize=16;" vertex="1" parent="Gv_cHLH_Avfb3xM3YmNq-152">
          <mxGeometry y="60" width="320" height="30" as="geometry" />
        </mxCell>
        <mxCell id="Gv_cHLH_Avfb3xM3YmNq-157" value="" style="shape=partialRectangle;html=1;whiteSpace=wrap;connectable=0;fillColor=none;top=0;left=0;bottom=0;right=0;overflow=hidden;pointerEvents=1;strokeColor=inherit;fontSize=16;" vertex="1" parent="Gv_cHLH_Avfb3xM3YmNq-156">
          <mxGeometry width="40" height="30" as="geometry">
            <mxRectangle width="40" height="30" as="alternateBounds" />
          </mxGeometry>
        </mxCell>
        <mxCell id="Gv_cHLH_Avfb3xM3YmNq-158" value="CreatedAt" style="shape=partialRectangle;html=1;whiteSpace=wrap;connectable=0;fillColor=none;top=0;left=0;bottom=0;right=0;align=left;spacingLeft=6;overflow=hidden;strokeColor=inherit;fontSize=16;" vertex="1" parent="Gv_cHLH_Avfb3xM3YmNq-156">
          <mxGeometry x="40" width="280" height="30" as="geometry">
            <mxRectangle width="280" height="30" as="alternateBounds" />
          </mxGeometry>
        </mxCell>
        <mxCell id="Gv_cHLH_Avfb3xM3YmNq-159" value="" style="shape=tableRow;horizontal=0;startSize=0;swimlaneHead=0;swimlaneBody=0;top=0;left=0;bottom=0;right=0;collapsible=0;dropTarget=0;fillColor=none;points=[[0,0.5],[1,0.5]];portConstraint=eastwest;strokeColor=inherit;fontSize=16;" vertex="1" parent="Gv_cHLH_Avfb3xM3YmNq-152">
          <mxGeometry y="90" width="320" height="30" as="geometry" />
        </mxCell>
        <mxCell id="Gv_cHLH_Avfb3xM3YmNq-160" value="" style="shape=partialRectangle;html=1;whiteSpace=wrap;connectable=0;fillColor=none;top=0;left=0;bottom=0;right=0;overflow=hidden;pointerEvents=1;strokeColor=inherit;fontSize=16;" vertex="1" parent="Gv_cHLH_Avfb3xM3YmNq-159">
          <mxGeometry width="40" height="30" as="geometry">
            <mxRectangle width="40" height="30" as="alternateBounds" />
          </mxGeometry>
        </mxCell>
        <mxCell id="Gv_cHLH_Avfb3xM3YmNq-161" value="UpdatedAt" style="shape=partialRectangle;html=1;whiteSpace=wrap;connectable=0;fillColor=none;top=0;left=0;bottom=0;right=0;align=left;spacingLeft=6;overflow=hidden;strokeColor=inherit;fontSize=16;" vertex="1" parent="Gv_cHLH_Avfb3xM3YmNq-159">
          <mxGeometry x="40" width="280" height="30" as="geometry">
            <mxRectangle width="280" height="30" as="alternateBounds" />
          </mxGeometry>
        </mxCell>
        <mxCell id="Gv_cHLH_Avfb3xM3YmNq-162" value="" style="shape=tableRow;horizontal=0;startSize=0;swimlaneHead=0;swimlaneBody=0;top=0;left=0;bottom=0;right=0;collapsible=0;dropTarget=0;fillColor=none;points=[[0,0.5],[1,0.5]];portConstraint=eastwest;strokeColor=inherit;fontSize=16;" vertex="1" parent="Gv_cHLH_Avfb3xM3YmNq-152">
          <mxGeometry y="120" width="320" height="30" as="geometry" />
        </mxCell>
        <mxCell id="Gv_cHLH_Avfb3xM3YmNq-163" value="" style="shape=partialRectangle;html=1;whiteSpace=wrap;connectable=0;fillColor=none;top=0;left=0;bottom=0;right=0;overflow=hidden;strokeColor=inherit;fontSize=16;" vertex="1" parent="Gv_cHLH_Avfb3xM3YmNq-162">
          <mxGeometry width="40" height="30" as="geometry">
            <mxRectangle width="40" height="30" as="alternateBounds" />
          </mxGeometry>
        </mxCell>
        <mxCell id="Gv_cHLH_Avfb3xM3YmNq-164" value="PlantName" style="shape=partialRectangle;html=1;whiteSpace=wrap;connectable=0;fillColor=none;top=0;left=0;bottom=0;right=0;align=left;spacingLeft=6;overflow=hidden;strokeColor=inherit;fontSize=16;" vertex="1" parent="Gv_cHLH_Avfb3xM3YmNq-162">
          <mxGeometry x="40" width="280" height="30" as="geometry">
            <mxRectangle width="280" height="30" as="alternateBounds" />
          </mxGeometry>
        </mxCell>
        <mxCell id="Gv_cHLH_Avfb3xM3YmNq-165" value="" style="shape=tableRow;horizontal=0;startSize=0;swimlaneHead=0;swimlaneBody=0;top=0;left=0;bottom=0;right=0;collapsible=0;dropTarget=0;fillColor=none;points=[[0,0.5],[1,0.5]];portConstraint=eastwest;strokeColor=inherit;fontSize=16;" vertex="1" parent="Gv_cHLH_Avfb3xM3YmNq-152">
          <mxGeometry y="150" width="320" height="30" as="geometry" />
        </mxCell>
        <mxCell id="Gv_cHLH_Avfb3xM3YmNq-166" value="" style="shape=partialRectangle;html=1;whiteSpace=wrap;connectable=0;fillColor=none;top=0;left=0;bottom=0;right=0;overflow=hidden;strokeColor=inherit;fontSize=16;" vertex="1" parent="Gv_cHLH_Avfb3xM3YmNq-165">
          <mxGeometry width="40" height="30" as="geometry">
            <mxRectangle width="40" height="30" as="alternateBounds" />
          </mxGeometry>
        </mxCell>
        <mxCell id="Gv_cHLH_Avfb3xM3YmNq-167" value="MoistureLevel" style="shape=partialRectangle;html=1;whiteSpace=wrap;connectable=0;fillColor=none;top=0;left=0;bottom=0;right=0;align=left;spacingLeft=6;overflow=hidden;strokeColor=inherit;fontSize=16;" vertex="1" parent="Gv_cHLH_Avfb3xM3YmNq-165">
          <mxGeometry x="40" width="280" height="30" as="geometry">
            <mxRectangle width="280" height="30" as="alternateBounds" />
          </mxGeometry>
        </mxCell>
        <mxCell id="Gv_cHLH_Avfb3xM3YmNq-168" value="" style="shape=tableRow;horizontal=0;startSize=0;swimlaneHead=0;swimlaneBody=0;top=0;left=0;bottom=0;right=0;collapsible=0;dropTarget=0;fillColor=none;points=[[0,0.5],[1,0.5]];portConstraint=eastwest;strokeColor=inherit;fontSize=16;" vertex="1" parent="Gv_cHLH_Avfb3xM3YmNq-152">
          <mxGeometry y="180" width="320" height="30" as="geometry" />
        </mxCell>
        <mxCell id="Gv_cHLH_Avfb3xM3YmNq-169" value="" style="shape=partialRectangle;html=1;whiteSpace=wrap;connectable=0;fillColor=none;top=0;left=0;bottom=0;right=0;overflow=hidden;strokeColor=inherit;fontSize=16;" vertex="1" parent="Gv_cHLH_Avfb3xM3YmNq-168">
          <mxGeometry width="40" height="30" as="geometry">
            <mxRectangle width="40" height="30" as="alternateBounds" />
          </mxGeometry>
        </mxCell>
        <mxCell id="Gv_cHLH_Avfb3xM3YmNq-170" value="SensorId" style="shape=partialRectangle;html=1;whiteSpace=wrap;connectable=0;fillColor=none;top=0;left=0;bottom=0;right=0;align=left;spacingLeft=6;overflow=hidden;strokeColor=inherit;fontSize=16;" vertex="1" parent="Gv_cHLH_Avfb3xM3YmNq-168">
          <mxGeometry x="40" width="280" height="30" as="geometry">
            <mxRectangle width="280" height="30" as="alternateBounds" />
          </mxGeometry>
        </mxCell>
        <mxCell id="Gv_cHLH_Avfb3xM3YmNq-171" value="" style="shape=tableRow;horizontal=0;startSize=0;swimlaneHead=0;swimlaneBody=0;top=0;left=0;bottom=0;right=0;collapsible=0;dropTarget=0;fillColor=none;points=[[0,0.5],[1,0.5]];portConstraint=eastwest;strokeColor=inherit;fontSize=16;" vertex="1" parent="Gv_cHLH_Avfb3xM3YmNq-152">
          <mxGeometry y="210" width="320" height="30" as="geometry" />
        </mxCell>
        <mxCell id="Gv_cHLH_Avfb3xM3YmNq-172" value="" style="shape=partialRectangle;html=1;whiteSpace=wrap;connectable=0;fillColor=none;top=0;left=0;bottom=0;right=0;overflow=hidden;strokeColor=inherit;fontSize=16;" vertex="1" parent="Gv_cHLH_Avfb3xM3YmNq-171">
          <mxGeometry width="40" height="30" as="geometry">
            <mxRectangle width="40" height="30" as="alternateBounds" />
          </mxGeometry>
        </mxCell>
        <mxCell id="Gv_cHLH_Avfb3xM3YmNq-173" value="ArduinoId" style="shape=partialRectangle;html=1;whiteSpace=wrap;connectable=0;fillColor=none;top=0;left=0;bottom=0;right=0;align=left;spacingLeft=6;overflow=hidden;strokeColor=inherit;fontSize=16;" vertex="1" parent="Gv_cHLH_Avfb3xM3YmNq-171">
          <mxGeometry x="40" width="280" height="30" as="geometry">
            <mxRectangle width="280" height="30" as="alternateBounds" />
          </mxGeometry>
        </mxCell>
        <mxCell id="Gv_cHLH_Avfb3xM3YmNq-174" value="Setting" style="shape=table;startSize=30;container=1;collapsible=0;childLayout=tableLayout;fixedRows=1;rowLines=0;fontStyle=0;strokeColor=default;fontSize=16;" vertex="1" parent="WIyWlLk6GJQsqaUBKTNV-1">
          <mxGeometry x="886" y="1370" width="320" height="240" as="geometry" />
        </mxCell>
        <mxCell id="Gv_cHLH_Avfb3xM3YmNq-175" value="" style="shape=tableRow;horizontal=0;startSize=0;swimlaneHead=0;swimlaneBody=0;top=0;left=0;bottom=0;right=0;collapsible=0;dropTarget=0;fillColor=none;points=[[0,0.5],[1,0.5]];portConstraint=eastwest;strokeColor=inherit;fontSize=16;" vertex="1" parent="Gv_cHLH_Avfb3xM3YmNq-174">
          <mxGeometry y="30" width="320" height="30" as="geometry" />
        </mxCell>
        <mxCell id="Gv_cHLH_Avfb3xM3YmNq-176" value="" style="shape=partialRectangle;html=1;whiteSpace=wrap;connectable=0;fillColor=none;top=0;left=0;bottom=0;right=0;overflow=hidden;pointerEvents=1;strokeColor=inherit;fontSize=16;" vertex="1" parent="Gv_cHLH_Avfb3xM3YmNq-175">
          <mxGeometry width="40" height="30" as="geometry">
            <mxRectangle width="40" height="30" as="alternateBounds" />
          </mxGeometry>
        </mxCell>
        <mxCell id="Gv_cHLH_Avfb3xM3YmNq-177" value="Id" style="shape=partialRectangle;html=1;whiteSpace=wrap;connectable=0;fillColor=none;top=0;left=0;bottom=0;right=0;align=left;spacingLeft=6;overflow=hidden;strokeColor=inherit;fontSize=16;" vertex="1" parent="Gv_cHLH_Avfb3xM3YmNq-175">
          <mxGeometry x="40" width="280" height="30" as="geometry">
            <mxRectangle width="280" height="30" as="alternateBounds" />
          </mxGeometry>
        </mxCell>
        <mxCell id="Gv_cHLH_Avfb3xM3YmNq-178" value="" style="shape=tableRow;horizontal=0;startSize=0;swimlaneHead=0;swimlaneBody=0;top=0;left=0;bottom=0;right=0;collapsible=0;dropTarget=0;fillColor=none;points=[[0,0.5],[1,0.5]];portConstraint=eastwest;strokeColor=inherit;fontSize=16;" vertex="1" parent="Gv_cHLH_Avfb3xM3YmNq-174">
          <mxGeometry y="60" width="320" height="30" as="geometry" />
        </mxCell>
        <mxCell id="Gv_cHLH_Avfb3xM3YmNq-179" value="" style="shape=partialRectangle;html=1;whiteSpace=wrap;connectable=0;fillColor=none;top=0;left=0;bottom=0;right=0;overflow=hidden;pointerEvents=1;strokeColor=inherit;fontSize=16;" vertex="1" parent="Gv_cHLH_Avfb3xM3YmNq-178">
          <mxGeometry width="40" height="30" as="geometry">
            <mxRectangle width="40" height="30" as="alternateBounds" />
          </mxGeometry>
        </mxCell>
        <mxCell id="Gv_cHLH_Avfb3xM3YmNq-180" value="CreatedAt" style="shape=partialRectangle;html=1;whiteSpace=wrap;connectable=0;fillColor=none;top=0;left=0;bottom=0;right=0;align=left;spacingLeft=6;overflow=hidden;strokeColor=inherit;fontSize=16;" vertex="1" parent="Gv_cHLH_Avfb3xM3YmNq-178">
          <mxGeometry x="40" width="280" height="30" as="geometry">
            <mxRectangle width="280" height="30" as="alternateBounds" />
          </mxGeometry>
        </mxCell>
        <mxCell id="Gv_cHLH_Avfb3xM3YmNq-181" value="" style="shape=tableRow;horizontal=0;startSize=0;swimlaneHead=0;swimlaneBody=0;top=0;left=0;bottom=0;right=0;collapsible=0;dropTarget=0;fillColor=none;points=[[0,0.5],[1,0.5]];portConstraint=eastwest;strokeColor=inherit;fontSize=16;" vertex="1" parent="Gv_cHLH_Avfb3xM3YmNq-174">
          <mxGeometry y="90" width="320" height="30" as="geometry" />
        </mxCell>
        <mxCell id="Gv_cHLH_Avfb3xM3YmNq-182" value="" style="shape=partialRectangle;html=1;whiteSpace=wrap;connectable=0;fillColor=none;top=0;left=0;bottom=0;right=0;overflow=hidden;pointerEvents=1;strokeColor=inherit;fontSize=16;" vertex="1" parent="Gv_cHLH_Avfb3xM3YmNq-181">
          <mxGeometry width="40" height="30" as="geometry">
            <mxRectangle width="40" height="30" as="alternateBounds" />
          </mxGeometry>
        </mxCell>
        <mxCell id="Gv_cHLH_Avfb3xM3YmNq-183" value="UpdatedAt" style="shape=partialRectangle;html=1;whiteSpace=wrap;connectable=0;fillColor=none;top=0;left=0;bottom=0;right=0;align=left;spacingLeft=6;overflow=hidden;strokeColor=inherit;fontSize=16;" vertex="1" parent="Gv_cHLH_Avfb3xM3YmNq-181">
          <mxGeometry x="40" width="280" height="30" as="geometry">
            <mxRectangle width="280" height="30" as="alternateBounds" />
          </mxGeometry>
        </mxCell>
        <mxCell id="Gv_cHLH_Avfb3xM3YmNq-184" value="" style="shape=tableRow;horizontal=0;startSize=0;swimlaneHead=0;swimlaneBody=0;top=0;left=0;bottom=0;right=0;collapsible=0;dropTarget=0;fillColor=none;points=[[0,0.5],[1,0.5]];portConstraint=eastwest;strokeColor=inherit;fontSize=16;" vertex="1" parent="Gv_cHLH_Avfb3xM3YmNq-174">
          <mxGeometry y="120" width="320" height="30" as="geometry" />
        </mxCell>
        <mxCell id="Gv_cHLH_Avfb3xM3YmNq-185" value="" style="shape=partialRectangle;html=1;whiteSpace=wrap;connectable=0;fillColor=none;top=0;left=0;bottom=0;right=0;overflow=hidden;strokeColor=inherit;fontSize=16;" vertex="1" parent="Gv_cHLH_Avfb3xM3YmNq-184">
          <mxGeometry width="40" height="30" as="geometry">
            <mxRectangle width="40" height="30" as="alternateBounds" />
          </mxGeometry>
        </mxCell>
        <mxCell id="Gv_cHLH_Avfb3xM3YmNq-186" value="SelectedPlant1" style="shape=partialRectangle;html=1;whiteSpace=wrap;connectable=0;fillColor=none;top=0;left=0;bottom=0;right=0;align=left;spacingLeft=6;overflow=hidden;strokeColor=inherit;fontSize=16;" vertex="1" parent="Gv_cHLH_Avfb3xM3YmNq-184">
          <mxGeometry x="40" width="280" height="30" as="geometry">
            <mxRectangle width="280" height="30" as="alternateBounds" />
          </mxGeometry>
        </mxCell>
        <mxCell id="Gv_cHLH_Avfb3xM3YmNq-187" value="" style="shape=tableRow;horizontal=0;startSize=0;swimlaneHead=0;swimlaneBody=0;top=0;left=0;bottom=0;right=0;collapsible=0;dropTarget=0;fillColor=none;points=[[0,0.5],[1,0.5]];portConstraint=eastwest;strokeColor=inherit;fontSize=16;" vertex="1" parent="Gv_cHLH_Avfb3xM3YmNq-174">
          <mxGeometry y="150" width="320" height="30" as="geometry" />
        </mxCell>
        <mxCell id="Gv_cHLH_Avfb3xM3YmNq-188" value="" style="shape=partialRectangle;html=1;whiteSpace=wrap;connectable=0;fillColor=none;top=0;left=0;bottom=0;right=0;overflow=hidden;strokeColor=inherit;fontSize=16;" vertex="1" parent="Gv_cHLH_Avfb3xM3YmNq-187">
          <mxGeometry width="40" height="30" as="geometry">
            <mxRectangle width="40" height="30" as="alternateBounds" />
          </mxGeometry>
        </mxCell>
        <mxCell id="Gv_cHLH_Avfb3xM3YmNq-189" value="SelectedPlant2" style="shape=partialRectangle;html=1;whiteSpace=wrap;connectable=0;fillColor=none;top=0;left=0;bottom=0;right=0;align=left;spacingLeft=6;overflow=hidden;strokeColor=inherit;fontSize=16;" vertex="1" parent="Gv_cHLH_Avfb3xM3YmNq-187">
          <mxGeometry x="40" width="280" height="30" as="geometry">
            <mxRectangle width="280" height="30" as="alternateBounds" />
          </mxGeometry>
        </mxCell>
        <mxCell id="Gv_cHLH_Avfb3xM3YmNq-190" value="" style="shape=tableRow;horizontal=0;startSize=0;swimlaneHead=0;swimlaneBody=0;top=0;left=0;bottom=0;right=0;collapsible=0;dropTarget=0;fillColor=none;points=[[0,0.5],[1,0.5]];portConstraint=eastwest;strokeColor=inherit;fontSize=16;" vertex="1" parent="Gv_cHLH_Avfb3xM3YmNq-174">
          <mxGeometry y="180" width="320" height="30" as="geometry" />
        </mxCell>
        <mxCell id="Gv_cHLH_Avfb3xM3YmNq-191" value="" style="shape=partialRectangle;html=1;whiteSpace=wrap;connectable=0;fillColor=none;top=0;left=0;bottom=0;right=0;overflow=hidden;strokeColor=inherit;fontSize=16;" vertex="1" parent="Gv_cHLH_Avfb3xM3YmNq-190">
          <mxGeometry width="40" height="30" as="geometry">
            <mxRectangle width="40" height="30" as="alternateBounds" />
          </mxGeometry>
        </mxCell>
        <mxCell id="Gv_cHLH_Avfb3xM3YmNq-192" value="AutoMode" style="shape=partialRectangle;html=1;whiteSpace=wrap;connectable=0;fillColor=none;top=0;left=0;bottom=0;right=0;align=left;spacingLeft=6;overflow=hidden;strokeColor=inherit;fontSize=16;" vertex="1" parent="Gv_cHLH_Avfb3xM3YmNq-190">
          <mxGeometry x="40" width="280" height="30" as="geometry">
            <mxRectangle width="280" height="30" as="alternateBounds" />
          </mxGeometry>
        </mxCell>
        <mxCell id="Gv_cHLH_Avfb3xM3YmNq-193" value="" style="shape=tableRow;horizontal=0;startSize=0;swimlaneHead=0;swimlaneBody=0;top=0;left=0;bottom=0;right=0;collapsible=0;dropTarget=0;fillColor=none;points=[[0,0.5],[1,0.5]];portConstraint=eastwest;strokeColor=inherit;fontSize=16;" vertex="1" parent="Gv_cHLH_Avfb3xM3YmNq-174">
          <mxGeometry y="210" width="320" height="30" as="geometry" />
        </mxCell>
        <mxCell id="Gv_cHLH_Avfb3xM3YmNq-194" value="" style="shape=partialRectangle;html=1;whiteSpace=wrap;connectable=0;fillColor=none;top=0;left=0;bottom=0;right=0;overflow=hidden;strokeColor=inherit;fontSize=16;" vertex="1" parent="Gv_cHLH_Avfb3xM3YmNq-193">
          <mxGeometry width="40" height="30" as="geometry">
            <mxRectangle width="40" height="30" as="alternateBounds" />
          </mxGeometry>
        </mxCell>
        <mxCell id="Gv_cHLH_Avfb3xM3YmNq-195" value="UserId" style="shape=partialRectangle;html=1;whiteSpace=wrap;connectable=0;fillColor=none;top=0;left=0;bottom=0;right=0;align=left;spacingLeft=6;overflow=hidden;strokeColor=inherit;fontSize=16;" vertex="1" parent="Gv_cHLH_Avfb3xM3YmNq-193">
          <mxGeometry x="40" width="280" height="30" as="geometry">
            <mxRectangle width="280" height="30" as="alternateBounds" />
          </mxGeometry>
        </mxCell>
        <mxCell id="Gv_cHLH_Avfb3xM3YmNq-196" value="User" style="shape=table;startSize=30;container=1;collapsible=0;childLayout=tableLayout;fixedRows=1;rowLines=0;fontStyle=0;strokeColor=default;fontSize=16;" vertex="1" parent="WIyWlLk6GJQsqaUBKTNV-1">
          <mxGeometry x="470" y="1370" width="320" height="240" as="geometry" />
        </mxCell>
        <mxCell id="Gv_cHLH_Avfb3xM3YmNq-197" value="" style="shape=tableRow;horizontal=0;startSize=0;swimlaneHead=0;swimlaneBody=0;top=0;left=0;bottom=0;right=0;collapsible=0;dropTarget=0;fillColor=none;points=[[0,0.5],[1,0.5]];portConstraint=eastwest;strokeColor=inherit;fontSize=16;" vertex="1" parent="Gv_cHLH_Avfb3xM3YmNq-196">
          <mxGeometry y="30" width="320" height="30" as="geometry" />
        </mxCell>
        <mxCell id="Gv_cHLH_Avfb3xM3YmNq-198" value="" style="shape=partialRectangle;html=1;whiteSpace=wrap;connectable=0;fillColor=none;top=0;left=0;bottom=0;right=0;overflow=hidden;pointerEvents=1;strokeColor=inherit;fontSize=16;" vertex="1" parent="Gv_cHLH_Avfb3xM3YmNq-197">
          <mxGeometry width="40" height="30" as="geometry">
            <mxRectangle width="40" height="30" as="alternateBounds" />
          </mxGeometry>
        </mxCell>
        <mxCell id="Gv_cHLH_Avfb3xM3YmNq-199" value="Id" style="shape=partialRectangle;html=1;whiteSpace=wrap;connectable=0;fillColor=none;top=0;left=0;bottom=0;right=0;align=left;spacingLeft=6;overflow=hidden;strokeColor=inherit;fontSize=16;" vertex="1" parent="Gv_cHLH_Avfb3xM3YmNq-197">
          <mxGeometry x="40" width="280" height="30" as="geometry">
            <mxRectangle width="280" height="30" as="alternateBounds" />
          </mxGeometry>
        </mxCell>
        <mxCell id="Gv_cHLH_Avfb3xM3YmNq-200" value="" style="shape=tableRow;horizontal=0;startSize=0;swimlaneHead=0;swimlaneBody=0;top=0;left=0;bottom=0;right=0;collapsible=0;dropTarget=0;fillColor=none;points=[[0,0.5],[1,0.5]];portConstraint=eastwest;strokeColor=inherit;fontSize=16;" vertex="1" parent="Gv_cHLH_Avfb3xM3YmNq-196">
          <mxGeometry y="60" width="320" height="30" as="geometry" />
        </mxCell>
        <mxCell id="Gv_cHLH_Avfb3xM3YmNq-201" value="" style="shape=partialRectangle;html=1;whiteSpace=wrap;connectable=0;fillColor=none;top=0;left=0;bottom=0;right=0;overflow=hidden;pointerEvents=1;strokeColor=inherit;fontSize=16;" vertex="1" parent="Gv_cHLH_Avfb3xM3YmNq-200">
          <mxGeometry width="40" height="30" as="geometry">
            <mxRectangle width="40" height="30" as="alternateBounds" />
          </mxGeometry>
        </mxCell>
        <mxCell id="Gv_cHLH_Avfb3xM3YmNq-202" value="CreatedAt" style="shape=partialRectangle;html=1;whiteSpace=wrap;connectable=0;fillColor=none;top=0;left=0;bottom=0;right=0;align=left;spacingLeft=6;overflow=hidden;strokeColor=inherit;fontSize=16;" vertex="1" parent="Gv_cHLH_Avfb3xM3YmNq-200">
          <mxGeometry x="40" width="280" height="30" as="geometry">
            <mxRectangle width="280" height="30" as="alternateBounds" />
          </mxGeometry>
        </mxCell>
        <mxCell id="Gv_cHLH_Avfb3xM3YmNq-203" value="" style="shape=tableRow;horizontal=0;startSize=0;swimlaneHead=0;swimlaneBody=0;top=0;left=0;bottom=0;right=0;collapsible=0;dropTarget=0;fillColor=none;points=[[0,0.5],[1,0.5]];portConstraint=eastwest;strokeColor=inherit;fontSize=16;" vertex="1" parent="Gv_cHLH_Avfb3xM3YmNq-196">
          <mxGeometry y="90" width="320" height="30" as="geometry" />
        </mxCell>
        <mxCell id="Gv_cHLH_Avfb3xM3YmNq-204" value="" style="shape=partialRectangle;html=1;whiteSpace=wrap;connectable=0;fillColor=none;top=0;left=0;bottom=0;right=0;overflow=hidden;pointerEvents=1;strokeColor=inherit;fontSize=16;" vertex="1" parent="Gv_cHLH_Avfb3xM3YmNq-203">
          <mxGeometry width="40" height="30" as="geometry">
            <mxRectangle width="40" height="30" as="alternateBounds" />
          </mxGeometry>
        </mxCell>
        <mxCell id="Gv_cHLH_Avfb3xM3YmNq-205" value="UpdatedAt" style="shape=partialRectangle;html=1;whiteSpace=wrap;connectable=0;fillColor=none;top=0;left=0;bottom=0;right=0;align=left;spacingLeft=6;overflow=hidden;strokeColor=inherit;fontSize=16;" vertex="1" parent="Gv_cHLH_Avfb3xM3YmNq-203">
          <mxGeometry x="40" width="280" height="30" as="geometry">
            <mxRectangle width="280" height="30" as="alternateBounds" />
          </mxGeometry>
        </mxCell>
        <mxCell id="Gv_cHLH_Avfb3xM3YmNq-206" value="" style="shape=tableRow;horizontal=0;startSize=0;swimlaneHead=0;swimlaneBody=0;top=0;left=0;bottom=0;right=0;collapsible=0;dropTarget=0;fillColor=none;points=[[0,0.5],[1,0.5]];portConstraint=eastwest;strokeColor=inherit;fontSize=16;" vertex="1" parent="Gv_cHLH_Avfb3xM3YmNq-196">
          <mxGeometry y="120" width="320" height="30" as="geometry" />
        </mxCell>
        <mxCell id="Gv_cHLH_Avfb3xM3YmNq-207" value="" style="shape=partialRectangle;html=1;whiteSpace=wrap;connectable=0;fillColor=none;top=0;left=0;bottom=0;right=0;overflow=hidden;strokeColor=inherit;fontSize=16;" vertex="1" parent="Gv_cHLH_Avfb3xM3YmNq-206">
          <mxGeometry width="40" height="30" as="geometry">
            <mxRectangle width="40" height="30" as="alternateBounds" />
          </mxGeometry>
        </mxCell>
        <mxCell id="Gv_cHLH_Avfb3xM3YmNq-208" value="Email" style="shape=partialRectangle;html=1;whiteSpace=wrap;connectable=0;fillColor=none;top=0;left=0;bottom=0;right=0;align=left;spacingLeft=6;overflow=hidden;strokeColor=inherit;fontSize=16;" vertex="1" parent="Gv_cHLH_Avfb3xM3YmNq-206">
          <mxGeometry x="40" width="280" height="30" as="geometry">
            <mxRectangle width="280" height="30" as="alternateBounds" />
          </mxGeometry>
        </mxCell>
        <mxCell id="Gv_cHLH_Avfb3xM3YmNq-209" value="" style="shape=tableRow;horizontal=0;startSize=0;swimlaneHead=0;swimlaneBody=0;top=0;left=0;bottom=0;right=0;collapsible=0;dropTarget=0;fillColor=none;points=[[0,0.5],[1,0.5]];portConstraint=eastwest;strokeColor=inherit;fontSize=16;" vertex="1" parent="Gv_cHLH_Avfb3xM3YmNq-196">
          <mxGeometry y="150" width="320" height="30" as="geometry" />
        </mxCell>
        <mxCell id="Gv_cHLH_Avfb3xM3YmNq-210" value="" style="shape=partialRectangle;html=1;whiteSpace=wrap;connectable=0;fillColor=none;top=0;left=0;bottom=0;right=0;overflow=hidden;strokeColor=inherit;fontSize=16;" vertex="1" parent="Gv_cHLH_Avfb3xM3YmNq-209">
          <mxGeometry width="40" height="30" as="geometry">
            <mxRectangle width="40" height="30" as="alternateBounds" />
          </mxGeometry>
        </mxCell>
        <mxCell id="Gv_cHLH_Avfb3xM3YmNq-211" value="Username" style="shape=partialRectangle;html=1;whiteSpace=wrap;connectable=0;fillColor=none;top=0;left=0;bottom=0;right=0;align=left;spacingLeft=6;overflow=hidden;strokeColor=inherit;fontSize=16;" vertex="1" parent="Gv_cHLH_Avfb3xM3YmNq-209">
          <mxGeometry x="40" width="280" height="30" as="geometry">
            <mxRectangle width="280" height="30" as="alternateBounds" />
          </mxGeometry>
        </mxCell>
        <mxCell id="Gv_cHLH_Avfb3xM3YmNq-212" value="" style="shape=tableRow;horizontal=0;startSize=0;swimlaneHead=0;swimlaneBody=0;top=0;left=0;bottom=0;right=0;collapsible=0;dropTarget=0;fillColor=none;points=[[0,0.5],[1,0.5]];portConstraint=eastwest;strokeColor=inherit;fontSize=16;" vertex="1" parent="Gv_cHLH_Avfb3xM3YmNq-196">
          <mxGeometry y="180" width="320" height="30" as="geometry" />
        </mxCell>
        <mxCell id="Gv_cHLH_Avfb3xM3YmNq-213" value="" style="shape=partialRectangle;html=1;whiteSpace=wrap;connectable=0;fillColor=none;top=0;left=0;bottom=0;right=0;overflow=hidden;strokeColor=inherit;fontSize=16;" vertex="1" parent="Gv_cHLH_Avfb3xM3YmNq-212">
          <mxGeometry width="40" height="30" as="geometry">
            <mxRectangle width="40" height="30" as="alternateBounds" />
          </mxGeometry>
        </mxCell>
        <mxCell id="Gv_cHLH_Avfb3xM3YmNq-214" value="Password" style="shape=partialRectangle;html=1;whiteSpace=wrap;connectable=0;fillColor=none;top=0;left=0;bottom=0;right=0;align=left;spacingLeft=6;overflow=hidden;strokeColor=inherit;fontSize=16;" vertex="1" parent="Gv_cHLH_Avfb3xM3YmNq-212">
          <mxGeometry x="40" width="280" height="30" as="geometry">
            <mxRectangle width="280" height="30" as="alternateBounds" />
          </mxGeometry>
        </mxCell>
        <mxCell id="Gv_cHLH_Avfb3xM3YmNq-215" value="" style="shape=tableRow;horizontal=0;startSize=0;swimlaneHead=0;swimlaneBody=0;top=0;left=0;bottom=0;right=0;collapsible=0;dropTarget=0;fillColor=none;points=[[0,0.5],[1,0.5]];portConstraint=eastwest;strokeColor=inherit;fontSize=16;" vertex="1" parent="Gv_cHLH_Avfb3xM3YmNq-196">
          <mxGeometry y="210" width="320" height="30" as="geometry" />
        </mxCell>
        <mxCell id="Gv_cHLH_Avfb3xM3YmNq-216" value="" style="shape=partialRectangle;html=1;whiteSpace=wrap;connectable=0;fillColor=none;top=0;left=0;bottom=0;right=0;overflow=hidden;strokeColor=inherit;fontSize=16;" vertex="1" parent="Gv_cHLH_Avfb3xM3YmNq-215">
          <mxGeometry width="40" height="30" as="geometry">
            <mxRectangle width="40" height="30" as="alternateBounds" />
          </mxGeometry>
        </mxCell>
        <mxCell id="Gv_cHLH_Avfb3xM3YmNq-217" value="Salt" style="shape=partialRectangle;html=1;whiteSpace=wrap;connectable=0;fillColor=none;top=0;left=0;bottom=0;right=0;align=left;spacingLeft=6;overflow=hidden;strokeColor=inherit;fontSize=16;" vertex="1" parent="Gv_cHLH_Avfb3xM3YmNq-215">
          <mxGeometry x="40" width="280" height="30" as="geometry">
            <mxRectangle width="280" height="30" as="alternateBounds" />
          </mxGeometry>
        </mxCell>
        <mxCell id="Gv_cHLH_Avfb3xM3YmNq-222" style="edgeStyle=orthogonalEdgeStyle;rounded=0;orthogonalLoop=1;jettySize=auto;html=1;exitX=0;exitY=0.5;exitDx=0;exitDy=0;entryX=1;entryY=0.5;entryDx=0;entryDy=0;" edge="1" parent="WIyWlLk6GJQsqaUBKTNV-1" source="Gv_cHLH_Avfb3xM3YmNq-197" target="Gv_cHLH_Avfb3xM3YmNq-128">
          <mxGeometry relative="1" as="geometry" />
        </mxCell>
        <mxCell id="Gv_cHLH_Avfb3xM3YmNq-224" style="edgeStyle=orthogonalEdgeStyle;rounded=0;orthogonalLoop=1;jettySize=auto;html=1;exitX=1;exitY=0.5;exitDx=0;exitDy=0;entryX=0;entryY=0.5;entryDx=0;entryDy=0;" edge="1" parent="WIyWlLk6GJQsqaUBKTNV-1" source="Gv_cHLH_Avfb3xM3YmNq-206" target="Gv_cHLH_Avfb3xM3YmNq-184">
          <mxGeometry relative="1" as="geometry" />
        </mxCell>
        <mxCell id="Gv_cHLH_Avfb3xM3YmNq-225" style="edgeStyle=orthogonalEdgeStyle;rounded=0;orthogonalLoop=1;jettySize=auto;html=1;exitX=1;exitY=0.5;exitDx=0;exitDy=0;entryX=0;entryY=0.5;entryDx=0;entryDy=0;" edge="1" parent="WIyWlLk6GJQsqaUBKTNV-1" source="Gv_cHLH_Avfb3xM3YmNq-197" target="Gv_cHLH_Avfb3xM3YmNq-146">
          <mxGeometry relative="1" as="geometry" />
        </mxCell>
        <mxCell id="Gv_cHLH_Avfb3xM3YmNq-226" style="edgeStyle=orthogonalEdgeStyle;rounded=0;orthogonalLoop=1;jettySize=auto;html=1;exitX=0;exitY=0.5;exitDx=0;exitDy=0;" edge="1" parent="WIyWlLk6GJQsqaUBKTNV-1" source="Gv_cHLH_Avfb3xM3YmNq-140" target="Gv_cHLH_Avfb3xM3YmNq-159">
          <mxGeometry relative="1" as="geometry" />
        </mxCell>
        <mxCell id="Gv_cHLH_Avfb3xM3YmNq-227" value="Plant" style="shape=table;startSize=30;container=1;collapsible=0;childLayout=tableLayout;fixedRows=1;rowLines=0;fontStyle=0;strokeColor=default;fontSize=16;" vertex="1" parent="WIyWlLk6GJQsqaUBKTNV-1">
          <mxGeometry x="90" y="1940" width="320" height="240" as="geometry" />
        </mxCell>
        <mxCell id="Gv_cHLH_Avfb3xM3YmNq-228" value="" style="shape=tableRow;horizontal=0;startSize=0;swimlaneHead=0;swimlaneBody=0;top=0;left=0;bottom=0;right=0;collapsible=0;dropTarget=0;fillColor=none;points=[[0,0.5],[1,0.5]];portConstraint=eastwest;strokeColor=inherit;fontSize=16;" vertex="1" parent="Gv_cHLH_Avfb3xM3YmNq-227">
          <mxGeometry y="30" width="320" height="30" as="geometry" />
        </mxCell>
        <mxCell id="Gv_cHLH_Avfb3xM3YmNq-229" value="" style="shape=partialRectangle;html=1;whiteSpace=wrap;connectable=0;fillColor=none;top=0;left=0;bottom=0;right=0;overflow=hidden;pointerEvents=1;strokeColor=inherit;fontSize=16;" vertex="1" parent="Gv_cHLH_Avfb3xM3YmNq-228">
          <mxGeometry width="40" height="30" as="geometry">
            <mxRectangle width="40" height="30" as="alternateBounds" />
          </mxGeometry>
        </mxCell>
        <mxCell id="Gv_cHLH_Avfb3xM3YmNq-230" value="" style="shape=partialRectangle;html=1;whiteSpace=wrap;connectable=0;fillColor=none;top=0;left=0;bottom=0;right=0;align=left;spacingLeft=6;overflow=hidden;strokeColor=inherit;fontSize=16;" vertex="1" parent="Gv_cHLH_Avfb3xM3YmNq-228">
          <mxGeometry x="40" width="280" height="30" as="geometry">
            <mxRectangle width="280" height="30" as="alternateBounds" />
          </mxGeometry>
        </mxCell>
        <mxCell id="Gv_cHLH_Avfb3xM3YmNq-231" value="" style="shape=tableRow;horizontal=0;startSize=0;swimlaneHead=0;swimlaneBody=0;top=0;left=0;bottom=0;right=0;collapsible=0;dropTarget=0;fillColor=none;points=[[0,0.5],[1,0.5]];portConstraint=eastwest;strokeColor=inherit;fontSize=16;" vertex="1" parent="Gv_cHLH_Avfb3xM3YmNq-227">
          <mxGeometry y="60" width="320" height="30" as="geometry" />
        </mxCell>
        <mxCell id="Gv_cHLH_Avfb3xM3YmNq-232" value="" style="shape=partialRectangle;html=1;whiteSpace=wrap;connectable=0;fillColor=none;top=0;left=0;bottom=0;right=0;overflow=hidden;pointerEvents=1;strokeColor=inherit;fontSize=16;" vertex="1" parent="Gv_cHLH_Avfb3xM3YmNq-231">
          <mxGeometry width="40" height="30" as="geometry">
            <mxRectangle width="40" height="30" as="alternateBounds" />
          </mxGeometry>
        </mxCell>
        <mxCell id="Gv_cHLH_Avfb3xM3YmNq-233" value="" style="shape=partialRectangle;html=1;whiteSpace=wrap;connectable=0;fillColor=none;top=0;left=0;bottom=0;right=0;align=left;spacingLeft=6;overflow=hidden;strokeColor=inherit;fontSize=16;" vertex="1" parent="Gv_cHLH_Avfb3xM3YmNq-231">
          <mxGeometry x="40" width="280" height="30" as="geometry">
            <mxRectangle width="280" height="30" as="alternateBounds" />
          </mxGeometry>
        </mxCell>
        <mxCell id="Gv_cHLH_Avfb3xM3YmNq-234" value="" style="shape=tableRow;horizontal=0;startSize=0;swimlaneHead=0;swimlaneBody=0;top=0;left=0;bottom=0;right=0;collapsible=0;dropTarget=0;fillColor=none;points=[[0,0.5],[1,0.5]];portConstraint=eastwest;strokeColor=inherit;fontSize=16;" vertex="1" parent="Gv_cHLH_Avfb3xM3YmNq-227">
          <mxGeometry y="90" width="320" height="30" as="geometry" />
        </mxCell>
        <mxCell id="Gv_cHLH_Avfb3xM3YmNq-235" value="" style="shape=partialRectangle;html=1;whiteSpace=wrap;connectable=0;fillColor=none;top=0;left=0;bottom=0;right=0;overflow=hidden;pointerEvents=1;strokeColor=inherit;fontSize=16;" vertex="1" parent="Gv_cHLH_Avfb3xM3YmNq-234">
          <mxGeometry width="40" height="30" as="geometry">
            <mxRectangle width="40" height="30" as="alternateBounds" />
          </mxGeometry>
        </mxCell>
        <mxCell id="Gv_cHLH_Avfb3xM3YmNq-236" value="" style="shape=partialRectangle;html=1;whiteSpace=wrap;connectable=0;fillColor=none;top=0;left=0;bottom=0;right=0;align=left;spacingLeft=6;overflow=hidden;strokeColor=inherit;fontSize=16;" vertex="1" parent="Gv_cHLH_Avfb3xM3YmNq-234">
          <mxGeometry x="40" width="280" height="30" as="geometry">
            <mxRectangle width="280" height="30" as="alternateBounds" />
          </mxGeometry>
        </mxCell>
        <mxCell id="Gv_cHLH_Avfb3xM3YmNq-237" value="" style="shape=tableRow;horizontal=0;startSize=0;swimlaneHead=0;swimlaneBody=0;top=0;left=0;bottom=0;right=0;collapsible=0;dropTarget=0;fillColor=none;points=[[0,0.5],[1,0.5]];portConstraint=eastwest;strokeColor=inherit;fontSize=16;" vertex="1" parent="Gv_cHLH_Avfb3xM3YmNq-227">
          <mxGeometry y="120" width="320" height="30" as="geometry" />
        </mxCell>
        <mxCell id="Gv_cHLH_Avfb3xM3YmNq-238" value="" style="shape=partialRectangle;html=1;whiteSpace=wrap;connectable=0;fillColor=none;top=0;left=0;bottom=0;right=0;overflow=hidden;pointerEvents=1;strokeColor=inherit;fontSize=16;" vertex="1" parent="Gv_cHLH_Avfb3xM3YmNq-237">
          <mxGeometry width="40" height="30" as="geometry">
            <mxRectangle width="40" height="30" as="alternateBounds" />
          </mxGeometry>
        </mxCell>
        <mxCell id="Gv_cHLH_Avfb3xM3YmNq-239" value="" style="shape=partialRectangle;html=1;whiteSpace=wrap;connectable=0;fillColor=none;top=0;left=0;bottom=0;right=0;align=left;spacingLeft=6;overflow=hidden;strokeColor=inherit;fontSize=16;" vertex="1" parent="Gv_cHLH_Avfb3xM3YmNq-237">
          <mxGeometry x="40" width="280" height="30" as="geometry">
            <mxRectangle width="280" height="30" as="alternateBounds" />
          </mxGeometry>
        </mxCell>
        <mxCell id="Gv_cHLH_Avfb3xM3YmNq-240" value="" style="shape=tableRow;horizontal=0;startSize=0;swimlaneHead=0;swimlaneBody=0;top=0;left=0;bottom=0;right=0;collapsible=0;dropTarget=0;fillColor=none;points=[[0,0.5],[1,0.5]];portConstraint=eastwest;strokeColor=inherit;fontSize=16;" vertex="1" parent="Gv_cHLH_Avfb3xM3YmNq-227">
          <mxGeometry y="150" width="320" height="30" as="geometry" />
        </mxCell>
        <mxCell id="Gv_cHLH_Avfb3xM3YmNq-241" value="" style="shape=partialRectangle;html=1;whiteSpace=wrap;connectable=0;fillColor=none;top=0;left=0;bottom=0;right=0;overflow=hidden;strokeColor=inherit;fontSize=16;" vertex="1" parent="Gv_cHLH_Avfb3xM3YmNq-240">
          <mxGeometry width="40" height="30" as="geometry">
            <mxRectangle width="40" height="30" as="alternateBounds" />
          </mxGeometry>
        </mxCell>
        <mxCell id="Gv_cHLH_Avfb3xM3YmNq-242" value="" style="shape=partialRectangle;html=1;whiteSpace=wrap;connectable=0;fillColor=none;top=0;left=0;bottom=0;right=0;align=left;spacingLeft=6;overflow=hidden;strokeColor=inherit;fontSize=16;" vertex="1" parent="Gv_cHLH_Avfb3xM3YmNq-240">
          <mxGeometry x="40" width="280" height="30" as="geometry">
            <mxRectangle width="280" height="30" as="alternateBounds" />
          </mxGeometry>
        </mxCell>
        <mxCell id="Gv_cHLH_Avfb3xM3YmNq-243" value="" style="shape=tableRow;horizontal=0;startSize=0;swimlaneHead=0;swimlaneBody=0;top=0;left=0;bottom=0;right=0;collapsible=0;dropTarget=0;fillColor=none;points=[[0,0.5],[1,0.5]];portConstraint=eastwest;strokeColor=inherit;fontSize=16;" vertex="1" parent="Gv_cHLH_Avfb3xM3YmNq-227">
          <mxGeometry y="180" width="320" height="30" as="geometry" />
        </mxCell>
        <mxCell id="Gv_cHLH_Avfb3xM3YmNq-244" value="" style="shape=partialRectangle;html=1;whiteSpace=wrap;connectable=0;fillColor=none;top=0;left=0;bottom=0;right=0;overflow=hidden;strokeColor=inherit;fontSize=16;" vertex="1" parent="Gv_cHLH_Avfb3xM3YmNq-243">
          <mxGeometry width="40" height="30" as="geometry">
            <mxRectangle width="40" height="30" as="alternateBounds" />
          </mxGeometry>
        </mxCell>
        <mxCell id="Gv_cHLH_Avfb3xM3YmNq-245" value="" style="shape=partialRectangle;html=1;whiteSpace=wrap;connectable=0;fillColor=none;top=0;left=0;bottom=0;right=0;align=left;spacingLeft=6;overflow=hidden;strokeColor=inherit;fontSize=16;" vertex="1" parent="Gv_cHLH_Avfb3xM3YmNq-243">
          <mxGeometry x="40" width="280" height="30" as="geometry">
            <mxRectangle width="280" height="30" as="alternateBounds" />
          </mxGeometry>
        </mxCell>
        <mxCell id="Gv_cHLH_Avfb3xM3YmNq-246" value="" style="shape=tableRow;horizontal=0;startSize=0;swimlaneHead=0;swimlaneBody=0;top=0;left=0;bottom=0;right=0;collapsible=0;dropTarget=0;fillColor=none;points=[[0,0.5],[1,0.5]];portConstraint=eastwest;strokeColor=inherit;fontSize=16;" vertex="1" parent="Gv_cHLH_Avfb3xM3YmNq-227">
          <mxGeometry y="210" width="320" height="30" as="geometry" />
        </mxCell>
        <mxCell id="Gv_cHLH_Avfb3xM3YmNq-247" value="" style="shape=partialRectangle;html=1;whiteSpace=wrap;connectable=0;fillColor=none;top=0;left=0;bottom=0;right=0;overflow=hidden;strokeColor=inherit;fontSize=16;" vertex="1" parent="Gv_cHLH_Avfb3xM3YmNq-246">
          <mxGeometry width="40" height="30" as="geometry">
            <mxRectangle width="40" height="30" as="alternateBounds" />
          </mxGeometry>
        </mxCell>
        <mxCell id="Gv_cHLH_Avfb3xM3YmNq-248" value="" style="shape=partialRectangle;html=1;whiteSpace=wrap;connectable=0;fillColor=none;top=0;left=0;bottom=0;right=0;align=left;spacingLeft=6;overflow=hidden;strokeColor=inherit;fontSize=16;" vertex="1" parent="Gv_cHLH_Avfb3xM3YmNq-246">
          <mxGeometry x="40" width="280" height="30" as="geometry">
            <mxRectangle width="280" height="30" as="alternateBounds" />
          </mxGeometry>
        </mxCell>
        <mxCell id="Gv_cHLH_Avfb3xM3YmNq-249" value="Arduino" style="shape=table;startSize=30;container=1;collapsible=0;childLayout=tableLayout;fixedRows=1;rowLines=0;fontStyle=0;strokeColor=default;fontSize=16;" vertex="1" parent="WIyWlLk6GJQsqaUBKTNV-1">
          <mxGeometry x="926" y="1780" width="340" height="210" as="geometry" />
        </mxCell>
        <mxCell id="Gv_cHLH_Avfb3xM3YmNq-250" value="" style="shape=tableRow;horizontal=0;startSize=0;swimlaneHead=0;swimlaneBody=0;top=0;left=0;bottom=0;right=0;collapsible=0;dropTarget=0;fillColor=none;points=[[0,0.5],[1,0.5]];portConstraint=eastwest;strokeColor=inherit;fontSize=16;" vertex="1" parent="Gv_cHLH_Avfb3xM3YmNq-249">
          <mxGeometry y="30" width="340" height="30" as="geometry" />
        </mxCell>
        <mxCell id="Gv_cHLH_Avfb3xM3YmNq-251" value="" style="shape=partialRectangle;html=1;whiteSpace=wrap;connectable=0;fillColor=none;top=0;left=0;bottom=0;right=0;overflow=hidden;pointerEvents=1;strokeColor=inherit;fontSize=16;" vertex="1" parent="Gv_cHLH_Avfb3xM3YmNq-250">
          <mxGeometry width="40" height="30" as="geometry">
            <mxRectangle width="40" height="30" as="alternateBounds" />
          </mxGeometry>
        </mxCell>
        <mxCell id="Gv_cHLH_Avfb3xM3YmNq-252" value="" style="shape=partialRectangle;html=1;whiteSpace=wrap;connectable=0;fillColor=none;top=0;left=0;bottom=0;right=0;align=left;spacingLeft=6;overflow=hidden;strokeColor=inherit;fontSize=16;" vertex="1" parent="Gv_cHLH_Avfb3xM3YmNq-250">
          <mxGeometry x="40" width="300" height="30" as="geometry">
            <mxRectangle width="300" height="30" as="alternateBounds" />
          </mxGeometry>
        </mxCell>
        <mxCell id="Gv_cHLH_Avfb3xM3YmNq-253" value="" style="shape=tableRow;horizontal=0;startSize=0;swimlaneHead=0;swimlaneBody=0;top=0;left=0;bottom=0;right=0;collapsible=0;dropTarget=0;fillColor=none;points=[[0,0.5],[1,0.5]];portConstraint=eastwest;strokeColor=inherit;fontSize=16;" vertex="1" parent="Gv_cHLH_Avfb3xM3YmNq-249">
          <mxGeometry y="60" width="340" height="30" as="geometry" />
        </mxCell>
        <mxCell id="Gv_cHLH_Avfb3xM3YmNq-254" value="" style="shape=partialRectangle;html=1;whiteSpace=wrap;connectable=0;fillColor=none;top=0;left=0;bottom=0;right=0;overflow=hidden;strokeColor=inherit;fontSize=16;" vertex="1" parent="Gv_cHLH_Avfb3xM3YmNq-253">
          <mxGeometry width="40" height="30" as="geometry">
            <mxRectangle width="40" height="30" as="alternateBounds" />
          </mxGeometry>
        </mxCell>
        <mxCell id="Gv_cHLH_Avfb3xM3YmNq-255" value="" style="shape=partialRectangle;html=1;whiteSpace=wrap;connectable=0;fillColor=none;top=0;left=0;bottom=0;right=0;align=left;spacingLeft=6;overflow=hidden;strokeColor=inherit;fontSize=16;" vertex="1" parent="Gv_cHLH_Avfb3xM3YmNq-253">
          <mxGeometry x="40" width="300" height="30" as="geometry">
            <mxRectangle width="300" height="30" as="alternateBounds" />
          </mxGeometry>
        </mxCell>
        <mxCell id="Gv_cHLH_Avfb3xM3YmNq-256" value="" style="shape=tableRow;horizontal=0;startSize=0;swimlaneHead=0;swimlaneBody=0;top=0;left=0;bottom=0;right=0;collapsible=0;dropTarget=0;fillColor=none;points=[[0,0.5],[1,0.5]];portConstraint=eastwest;strokeColor=inherit;fontSize=16;" vertex="1" parent="Gv_cHLH_Avfb3xM3YmNq-249">
          <mxGeometry y="90" width="340" height="30" as="geometry" />
        </mxCell>
        <mxCell id="Gv_cHLH_Avfb3xM3YmNq-257" value="" style="shape=partialRectangle;html=1;whiteSpace=wrap;connectable=0;fillColor=none;top=0;left=0;bottom=0;right=0;overflow=hidden;strokeColor=inherit;fontSize=16;" vertex="1" parent="Gv_cHLH_Avfb3xM3YmNq-256">
          <mxGeometry width="40" height="30" as="geometry">
            <mxRectangle width="40" height="30" as="alternateBounds" />
          </mxGeometry>
        </mxCell>
        <mxCell id="Gv_cHLH_Avfb3xM3YmNq-258" value="" style="shape=partialRectangle;html=1;whiteSpace=wrap;connectable=0;fillColor=none;top=0;left=0;bottom=0;right=0;align=left;spacingLeft=6;overflow=hidden;strokeColor=inherit;fontSize=16;" vertex="1" parent="Gv_cHLH_Avfb3xM3YmNq-256">
          <mxGeometry x="40" width="300" height="30" as="geometry">
            <mxRectangle width="300" height="30" as="alternateBounds" />
          </mxGeometry>
        </mxCell>
        <mxCell id="Gv_cHLH_Avfb3xM3YmNq-259" value="" style="shape=tableRow;horizontal=0;startSize=0;swimlaneHead=0;swimlaneBody=0;top=0;left=0;bottom=0;right=0;collapsible=0;dropTarget=0;fillColor=none;points=[[0,0.5],[1,0.5]];portConstraint=eastwest;strokeColor=inherit;fontSize=16;" vertex="1" parent="Gv_cHLH_Avfb3xM3YmNq-249">
          <mxGeometry y="120" width="340" height="30" as="geometry" />
        </mxCell>
        <mxCell id="Gv_cHLH_Avfb3xM3YmNq-260" value="" style="shape=partialRectangle;html=1;whiteSpace=wrap;connectable=0;fillColor=none;top=0;left=0;bottom=0;right=0;overflow=hidden;strokeColor=inherit;fontSize=16;" vertex="1" parent="Gv_cHLH_Avfb3xM3YmNq-259">
          <mxGeometry width="40" height="30" as="geometry">
            <mxRectangle width="40" height="30" as="alternateBounds" />
          </mxGeometry>
        </mxCell>
        <mxCell id="Gv_cHLH_Avfb3xM3YmNq-261" value="" style="shape=partialRectangle;html=1;whiteSpace=wrap;connectable=0;fillColor=none;top=0;left=0;bottom=0;right=0;align=left;spacingLeft=6;overflow=hidden;strokeColor=inherit;fontSize=16;" vertex="1" parent="Gv_cHLH_Avfb3xM3YmNq-259">
          <mxGeometry x="40" width="300" height="30" as="geometry">
            <mxRectangle width="300" height="30" as="alternateBounds" />
          </mxGeometry>
        </mxCell>
        <mxCell id="Gv_cHLH_Avfb3xM3YmNq-262" value="" style="shape=tableRow;horizontal=0;startSize=0;swimlaneHead=0;swimlaneBody=0;top=0;left=0;bottom=0;right=0;collapsible=0;dropTarget=0;fillColor=none;points=[[0,0.5],[1,0.5]];portConstraint=eastwest;strokeColor=inherit;fontSize=16;" vertex="1" parent="Gv_cHLH_Avfb3xM3YmNq-249">
          <mxGeometry y="150" width="340" height="30" as="geometry" />
        </mxCell>
        <mxCell id="Gv_cHLH_Avfb3xM3YmNq-263" value="" style="shape=partialRectangle;html=1;whiteSpace=wrap;connectable=0;fillColor=none;top=0;left=0;bottom=0;right=0;overflow=hidden;strokeColor=inherit;fontSize=16;" vertex="1" parent="Gv_cHLH_Avfb3xM3YmNq-262">
          <mxGeometry width="40" height="30" as="geometry">
            <mxRectangle width="40" height="30" as="alternateBounds" />
          </mxGeometry>
        </mxCell>
        <mxCell id="Gv_cHLH_Avfb3xM3YmNq-264" value="" style="shape=partialRectangle;html=1;whiteSpace=wrap;connectable=0;fillColor=none;top=0;left=0;bottom=0;right=0;align=left;spacingLeft=6;overflow=hidden;strokeColor=inherit;fontSize=16;" vertex="1" parent="Gv_cHLH_Avfb3xM3YmNq-262">
          <mxGeometry x="40" width="300" height="30" as="geometry">
            <mxRectangle width="300" height="30" as="alternateBounds" />
          </mxGeometry>
        </mxCell>
        <mxCell id="Gv_cHLH_Avfb3xM3YmNq-265" value="" style="shape=tableRow;horizontal=0;startSize=0;swimlaneHead=0;swimlaneBody=0;top=0;left=0;bottom=0;right=0;collapsible=0;dropTarget=0;fillColor=none;points=[[0,0.5],[1,0.5]];portConstraint=eastwest;strokeColor=inherit;fontSize=16;" vertex="1" parent="Gv_cHLH_Avfb3xM3YmNq-249">
          <mxGeometry y="180" width="340" height="30" as="geometry" />
        </mxCell>
        <mxCell id="Gv_cHLH_Avfb3xM3YmNq-266" value="" style="shape=partialRectangle;html=1;whiteSpace=wrap;connectable=0;fillColor=none;top=0;left=0;bottom=0;right=0;overflow=hidden;strokeColor=inherit;fontSize=16;" vertex="1" parent="Gv_cHLH_Avfb3xM3YmNq-265">
          <mxGeometry width="40" height="30" as="geometry">
            <mxRectangle width="40" height="30" as="alternateBounds" />
          </mxGeometry>
        </mxCell>
        <mxCell id="Gv_cHLH_Avfb3xM3YmNq-267" value="" style="shape=partialRectangle;html=1;whiteSpace=wrap;connectable=0;fillColor=none;top=0;left=0;bottom=0;right=0;align=left;spacingLeft=6;overflow=hidden;strokeColor=inherit;fontSize=16;" vertex="1" parent="Gv_cHLH_Avfb3xM3YmNq-265">
          <mxGeometry x="40" width="300" height="30" as="geometry">
            <mxRectangle width="300" height="30" as="alternateBounds" />
          </mxGeometry>
        </mxCell>
        <mxCell id="Gv_cHLH_Avfb3xM3YmNq-268" value="PlantOverview" style="shape=table;startSize=30;container=1;collapsible=0;childLayout=tableLayout;fixedRows=1;rowLines=0;fontStyle=0;strokeColor=default;fontSize=16;" vertex="1" parent="WIyWlLk6GJQsqaUBKTNV-1">
          <mxGeometry x="490" y="1780" width="320" height="240" as="geometry" />
        </mxCell>
        <mxCell id="Gv_cHLH_Avfb3xM3YmNq-269" value="" style="shape=tableRow;horizontal=0;startSize=0;swimlaneHead=0;swimlaneBody=0;top=0;left=0;bottom=0;right=0;collapsible=0;dropTarget=0;fillColor=none;points=[[0,0.5],[1,0.5]];portConstraint=eastwest;strokeColor=inherit;fontSize=16;" vertex="1" parent="Gv_cHLH_Avfb3xM3YmNq-268">
          <mxGeometry y="30" width="320" height="30" as="geometry" />
        </mxCell>
        <mxCell id="Gv_cHLH_Avfb3xM3YmNq-270" value="" style="shape=partialRectangle;html=1;whiteSpace=wrap;connectable=0;fillColor=none;top=0;left=0;bottom=0;right=0;overflow=hidden;pointerEvents=1;strokeColor=inherit;fontSize=16;" vertex="1" parent="Gv_cHLH_Avfb3xM3YmNq-269">
          <mxGeometry width="40" height="30" as="geometry">
            <mxRectangle width="40" height="30" as="alternateBounds" />
          </mxGeometry>
        </mxCell>
        <mxCell id="Gv_cHLH_Avfb3xM3YmNq-271" value="" style="shape=partialRectangle;html=1;whiteSpace=wrap;connectable=0;fillColor=none;top=0;left=0;bottom=0;right=0;align=left;spacingLeft=6;overflow=hidden;strokeColor=inherit;fontSize=16;" vertex="1" parent="Gv_cHLH_Avfb3xM3YmNq-269">
          <mxGeometry x="40" width="280" height="30" as="geometry">
            <mxRectangle width="280" height="30" as="alternateBounds" />
          </mxGeometry>
        </mxCell>
        <mxCell id="Gv_cHLH_Avfb3xM3YmNq-272" value="" style="shape=tableRow;horizontal=0;startSize=0;swimlaneHead=0;swimlaneBody=0;top=0;left=0;bottom=0;right=0;collapsible=0;dropTarget=0;fillColor=none;points=[[0,0.5],[1,0.5]];portConstraint=eastwest;strokeColor=inherit;fontSize=16;" vertex="1" parent="Gv_cHLH_Avfb3xM3YmNq-268">
          <mxGeometry y="60" width="320" height="30" as="geometry" />
        </mxCell>
        <mxCell id="Gv_cHLH_Avfb3xM3YmNq-273" value="" style="shape=partialRectangle;html=1;whiteSpace=wrap;connectable=0;fillColor=none;top=0;left=0;bottom=0;right=0;overflow=hidden;pointerEvents=1;strokeColor=inherit;fontSize=16;" vertex="1" parent="Gv_cHLH_Avfb3xM3YmNq-272">
          <mxGeometry width="40" height="30" as="geometry">
            <mxRectangle width="40" height="30" as="alternateBounds" />
          </mxGeometry>
        </mxCell>
        <mxCell id="Gv_cHLH_Avfb3xM3YmNq-274" value="" style="shape=partialRectangle;html=1;whiteSpace=wrap;connectable=0;fillColor=none;top=0;left=0;bottom=0;right=0;align=left;spacingLeft=6;overflow=hidden;strokeColor=inherit;fontSize=16;" vertex="1" parent="Gv_cHLH_Avfb3xM3YmNq-272">
          <mxGeometry x="40" width="280" height="30" as="geometry">
            <mxRectangle width="280" height="30" as="alternateBounds" />
          </mxGeometry>
        </mxCell>
        <mxCell id="Gv_cHLH_Avfb3xM3YmNq-275" value="" style="shape=tableRow;horizontal=0;startSize=0;swimlaneHead=0;swimlaneBody=0;top=0;left=0;bottom=0;right=0;collapsible=0;dropTarget=0;fillColor=none;points=[[0,0.5],[1,0.5]];portConstraint=eastwest;strokeColor=inherit;fontSize=16;" vertex="1" parent="Gv_cHLH_Avfb3xM3YmNq-268">
          <mxGeometry y="90" width="320" height="30" as="geometry" />
        </mxCell>
        <mxCell id="Gv_cHLH_Avfb3xM3YmNq-276" value="" style="shape=partialRectangle;html=1;whiteSpace=wrap;connectable=0;fillColor=none;top=0;left=0;bottom=0;right=0;overflow=hidden;pointerEvents=1;strokeColor=inherit;fontSize=16;" vertex="1" parent="Gv_cHLH_Avfb3xM3YmNq-275">
          <mxGeometry width="40" height="30" as="geometry">
            <mxRectangle width="40" height="30" as="alternateBounds" />
          </mxGeometry>
        </mxCell>
        <mxCell id="Gv_cHLH_Avfb3xM3YmNq-277" value="" style="shape=partialRectangle;html=1;whiteSpace=wrap;connectable=0;fillColor=none;top=0;left=0;bottom=0;right=0;align=left;spacingLeft=6;overflow=hidden;strokeColor=inherit;fontSize=16;" vertex="1" parent="Gv_cHLH_Avfb3xM3YmNq-275">
          <mxGeometry x="40" width="280" height="30" as="geometry">
            <mxRectangle width="280" height="30" as="alternateBounds" />
          </mxGeometry>
        </mxCell>
        <mxCell id="Gv_cHLH_Avfb3xM3YmNq-278" value="" style="shape=tableRow;horizontal=0;startSize=0;swimlaneHead=0;swimlaneBody=0;top=0;left=0;bottom=0;right=0;collapsible=0;dropTarget=0;fillColor=none;points=[[0,0.5],[1,0.5]];portConstraint=eastwest;strokeColor=inherit;fontSize=16;" vertex="1" parent="Gv_cHLH_Avfb3xM3YmNq-268">
          <mxGeometry y="120" width="320" height="30" as="geometry" />
        </mxCell>
        <mxCell id="Gv_cHLH_Avfb3xM3YmNq-279" value="" style="shape=partialRectangle;html=1;whiteSpace=wrap;connectable=0;fillColor=none;top=0;left=0;bottom=0;right=0;overflow=hidden;strokeColor=inherit;fontSize=16;" vertex="1" parent="Gv_cHLH_Avfb3xM3YmNq-278">
          <mxGeometry width="40" height="30" as="geometry">
            <mxRectangle width="40" height="30" as="alternateBounds" />
          </mxGeometry>
        </mxCell>
        <mxCell id="Gv_cHLH_Avfb3xM3YmNq-280" value="" style="shape=partialRectangle;html=1;whiteSpace=wrap;connectable=0;fillColor=none;top=0;left=0;bottom=0;right=0;align=left;spacingLeft=6;overflow=hidden;strokeColor=inherit;fontSize=16;" vertex="1" parent="Gv_cHLH_Avfb3xM3YmNq-278">
          <mxGeometry x="40" width="280" height="30" as="geometry">
            <mxRectangle width="280" height="30" as="alternateBounds" />
          </mxGeometry>
        </mxCell>
        <mxCell id="Gv_cHLH_Avfb3xM3YmNq-281" value="" style="shape=tableRow;horizontal=0;startSize=0;swimlaneHead=0;swimlaneBody=0;top=0;left=0;bottom=0;right=0;collapsible=0;dropTarget=0;fillColor=none;points=[[0,0.5],[1,0.5]];portConstraint=eastwest;strokeColor=inherit;fontSize=16;" vertex="1" parent="Gv_cHLH_Avfb3xM3YmNq-268">
          <mxGeometry y="150" width="320" height="30" as="geometry" />
        </mxCell>
        <mxCell id="Gv_cHLH_Avfb3xM3YmNq-282" value="" style="shape=partialRectangle;html=1;whiteSpace=wrap;connectable=0;fillColor=none;top=0;left=0;bottom=0;right=0;overflow=hidden;strokeColor=inherit;fontSize=16;" vertex="1" parent="Gv_cHLH_Avfb3xM3YmNq-281">
          <mxGeometry width="40" height="30" as="geometry">
            <mxRectangle width="40" height="30" as="alternateBounds" />
          </mxGeometry>
        </mxCell>
        <mxCell id="Gv_cHLH_Avfb3xM3YmNq-283" value="" style="shape=partialRectangle;html=1;whiteSpace=wrap;connectable=0;fillColor=none;top=0;left=0;bottom=0;right=0;align=left;spacingLeft=6;overflow=hidden;strokeColor=inherit;fontSize=16;" vertex="1" parent="Gv_cHLH_Avfb3xM3YmNq-281">
          <mxGeometry x="40" width="280" height="30" as="geometry">
            <mxRectangle width="280" height="30" as="alternateBounds" />
          </mxGeometry>
        </mxCell>
        <mxCell id="Gv_cHLH_Avfb3xM3YmNq-284" value="" style="shape=tableRow;horizontal=0;startSize=0;swimlaneHead=0;swimlaneBody=0;top=0;left=0;bottom=0;right=0;collapsible=0;dropTarget=0;fillColor=none;points=[[0,0.5],[1,0.5]];portConstraint=eastwest;strokeColor=inherit;fontSize=16;" vertex="1" parent="Gv_cHLH_Avfb3xM3YmNq-268">
          <mxGeometry y="180" width="320" height="30" as="geometry" />
        </mxCell>
        <mxCell id="Gv_cHLH_Avfb3xM3YmNq-285" value="" style="shape=partialRectangle;html=1;whiteSpace=wrap;connectable=0;fillColor=none;top=0;left=0;bottom=0;right=0;overflow=hidden;strokeColor=inherit;fontSize=16;" vertex="1" parent="Gv_cHLH_Avfb3xM3YmNq-284">
          <mxGeometry width="40" height="30" as="geometry">
            <mxRectangle width="40" height="30" as="alternateBounds" />
          </mxGeometry>
        </mxCell>
        <mxCell id="Gv_cHLH_Avfb3xM3YmNq-286" value="" style="shape=partialRectangle;html=1;whiteSpace=wrap;connectable=0;fillColor=none;top=0;left=0;bottom=0;right=0;align=left;spacingLeft=6;overflow=hidden;strokeColor=inherit;fontSize=16;" vertex="1" parent="Gv_cHLH_Avfb3xM3YmNq-284">
          <mxGeometry x="40" width="280" height="30" as="geometry">
            <mxRectangle width="280" height="30" as="alternateBounds" />
          </mxGeometry>
        </mxCell>
        <mxCell id="Gv_cHLH_Avfb3xM3YmNq-287" value="" style="shape=tableRow;horizontal=0;startSize=0;swimlaneHead=0;swimlaneBody=0;top=0;left=0;bottom=0;right=0;collapsible=0;dropTarget=0;fillColor=none;points=[[0,0.5],[1,0.5]];portConstraint=eastwest;strokeColor=inherit;fontSize=16;" vertex="1" parent="Gv_cHLH_Avfb3xM3YmNq-268">
          <mxGeometry y="210" width="320" height="30" as="geometry" />
        </mxCell>
        <mxCell id="Gv_cHLH_Avfb3xM3YmNq-288" value="" style="shape=partialRectangle;html=1;whiteSpace=wrap;connectable=0;fillColor=none;top=0;left=0;bottom=0;right=0;overflow=hidden;strokeColor=inherit;fontSize=16;" vertex="1" parent="Gv_cHLH_Avfb3xM3YmNq-287">
          <mxGeometry width="40" height="30" as="geometry">
            <mxRectangle width="40" height="30" as="alternateBounds" />
          </mxGeometry>
        </mxCell>
        <mxCell id="Gv_cHLH_Avfb3xM3YmNq-289" value="" style="shape=partialRectangle;html=1;whiteSpace=wrap;connectable=0;fillColor=none;top=0;left=0;bottom=0;right=0;align=left;spacingLeft=6;overflow=hidden;strokeColor=inherit;fontSize=16;" vertex="1" parent="Gv_cHLH_Avfb3xM3YmNq-287">
          <mxGeometry x="40" width="280" height="30" as="geometry">
            <mxRectangle width="280" height="30" as="alternateBounds" />
          </mxGeometry>
        </mxCell>
        <mxCell id="Gv_cHLH_Avfb3xM3YmNq-290" value="Setting" style="shape=table;startSize=30;container=1;collapsible=0;childLayout=tableLayout;fixedRows=1;rowLines=0;fontStyle=0;strokeColor=default;fontSize=16;" vertex="1" parent="WIyWlLk6GJQsqaUBKTNV-1">
          <mxGeometry x="926" y="2120" width="320" height="240" as="geometry" />
        </mxCell>
        <mxCell id="Gv_cHLH_Avfb3xM3YmNq-291" value="" style="shape=tableRow;horizontal=0;startSize=0;swimlaneHead=0;swimlaneBody=0;top=0;left=0;bottom=0;right=0;collapsible=0;dropTarget=0;fillColor=none;points=[[0,0.5],[1,0.5]];portConstraint=eastwest;strokeColor=inherit;fontSize=16;" vertex="1" parent="Gv_cHLH_Avfb3xM3YmNq-290">
          <mxGeometry y="30" width="320" height="30" as="geometry" />
        </mxCell>
        <mxCell id="Gv_cHLH_Avfb3xM3YmNq-292" value="" style="shape=partialRectangle;html=1;whiteSpace=wrap;connectable=0;fillColor=none;top=0;left=0;bottom=0;right=0;overflow=hidden;pointerEvents=1;strokeColor=inherit;fontSize=16;" vertex="1" parent="Gv_cHLH_Avfb3xM3YmNq-291">
          <mxGeometry width="40" height="30" as="geometry">
            <mxRectangle width="40" height="30" as="alternateBounds" />
          </mxGeometry>
        </mxCell>
        <mxCell id="Gv_cHLH_Avfb3xM3YmNq-293" value="" style="shape=partialRectangle;html=1;whiteSpace=wrap;connectable=0;fillColor=none;top=0;left=0;bottom=0;right=0;align=left;spacingLeft=6;overflow=hidden;strokeColor=inherit;fontSize=16;" vertex="1" parent="Gv_cHLH_Avfb3xM3YmNq-291">
          <mxGeometry x="40" width="280" height="30" as="geometry">
            <mxRectangle width="280" height="30" as="alternateBounds" />
          </mxGeometry>
        </mxCell>
        <mxCell id="Gv_cHLH_Avfb3xM3YmNq-294" value="" style="shape=tableRow;horizontal=0;startSize=0;swimlaneHead=0;swimlaneBody=0;top=0;left=0;bottom=0;right=0;collapsible=0;dropTarget=0;fillColor=none;points=[[0,0.5],[1,0.5]];portConstraint=eastwest;strokeColor=inherit;fontSize=16;" vertex="1" parent="Gv_cHLH_Avfb3xM3YmNq-290">
          <mxGeometry y="60" width="320" height="30" as="geometry" />
        </mxCell>
        <mxCell id="Gv_cHLH_Avfb3xM3YmNq-295" value="" style="shape=partialRectangle;html=1;whiteSpace=wrap;connectable=0;fillColor=none;top=0;left=0;bottom=0;right=0;overflow=hidden;pointerEvents=1;strokeColor=inherit;fontSize=16;" vertex="1" parent="Gv_cHLH_Avfb3xM3YmNq-294">
          <mxGeometry width="40" height="30" as="geometry">
            <mxRectangle width="40" height="30" as="alternateBounds" />
          </mxGeometry>
        </mxCell>
        <mxCell id="Gv_cHLH_Avfb3xM3YmNq-296" value="" style="shape=partialRectangle;html=1;whiteSpace=wrap;connectable=0;fillColor=none;top=0;left=0;bottom=0;right=0;align=left;spacingLeft=6;overflow=hidden;strokeColor=inherit;fontSize=16;" vertex="1" parent="Gv_cHLH_Avfb3xM3YmNq-294">
          <mxGeometry x="40" width="280" height="30" as="geometry">
            <mxRectangle width="280" height="30" as="alternateBounds" />
          </mxGeometry>
        </mxCell>
        <mxCell id="Gv_cHLH_Avfb3xM3YmNq-297" value="" style="shape=tableRow;horizontal=0;startSize=0;swimlaneHead=0;swimlaneBody=0;top=0;left=0;bottom=0;right=0;collapsible=0;dropTarget=0;fillColor=none;points=[[0,0.5],[1,0.5]];portConstraint=eastwest;strokeColor=inherit;fontSize=16;" vertex="1" parent="Gv_cHLH_Avfb3xM3YmNq-290">
          <mxGeometry y="90" width="320" height="30" as="geometry" />
        </mxCell>
        <mxCell id="Gv_cHLH_Avfb3xM3YmNq-298" value="" style="shape=partialRectangle;html=1;whiteSpace=wrap;connectable=0;fillColor=none;top=0;left=0;bottom=0;right=0;overflow=hidden;pointerEvents=1;strokeColor=inherit;fontSize=16;" vertex="1" parent="Gv_cHLH_Avfb3xM3YmNq-297">
          <mxGeometry width="40" height="30" as="geometry">
            <mxRectangle width="40" height="30" as="alternateBounds" />
          </mxGeometry>
        </mxCell>
        <mxCell id="Gv_cHLH_Avfb3xM3YmNq-299" value="" style="shape=partialRectangle;html=1;whiteSpace=wrap;connectable=0;fillColor=none;top=0;left=0;bottom=0;right=0;align=left;spacingLeft=6;overflow=hidden;strokeColor=inherit;fontSize=16;" vertex="1" parent="Gv_cHLH_Avfb3xM3YmNq-297">
          <mxGeometry x="40" width="280" height="30" as="geometry">
            <mxRectangle width="280" height="30" as="alternateBounds" />
          </mxGeometry>
        </mxCell>
        <mxCell id="Gv_cHLH_Avfb3xM3YmNq-300" value="" style="shape=tableRow;horizontal=0;startSize=0;swimlaneHead=0;swimlaneBody=0;top=0;left=0;bottom=0;right=0;collapsible=0;dropTarget=0;fillColor=none;points=[[0,0.5],[1,0.5]];portConstraint=eastwest;strokeColor=inherit;fontSize=16;" vertex="1" parent="Gv_cHLH_Avfb3xM3YmNq-290">
          <mxGeometry y="120" width="320" height="30" as="geometry" />
        </mxCell>
        <mxCell id="Gv_cHLH_Avfb3xM3YmNq-301" value="" style="shape=partialRectangle;html=1;whiteSpace=wrap;connectable=0;fillColor=none;top=0;left=0;bottom=0;right=0;overflow=hidden;strokeColor=inherit;fontSize=16;" vertex="1" parent="Gv_cHLH_Avfb3xM3YmNq-300">
          <mxGeometry width="40" height="30" as="geometry">
            <mxRectangle width="40" height="30" as="alternateBounds" />
          </mxGeometry>
        </mxCell>
        <mxCell id="Gv_cHLH_Avfb3xM3YmNq-302" value="" style="shape=partialRectangle;html=1;whiteSpace=wrap;connectable=0;fillColor=none;top=0;left=0;bottom=0;right=0;align=left;spacingLeft=6;overflow=hidden;strokeColor=inherit;fontSize=16;" vertex="1" parent="Gv_cHLH_Avfb3xM3YmNq-300">
          <mxGeometry x="40" width="280" height="30" as="geometry">
            <mxRectangle width="280" height="30" as="alternateBounds" />
          </mxGeometry>
        </mxCell>
        <mxCell id="Gv_cHLH_Avfb3xM3YmNq-303" value="" style="shape=tableRow;horizontal=0;startSize=0;swimlaneHead=0;swimlaneBody=0;top=0;left=0;bottom=0;right=0;collapsible=0;dropTarget=0;fillColor=none;points=[[0,0.5],[1,0.5]];portConstraint=eastwest;strokeColor=inherit;fontSize=16;" vertex="1" parent="Gv_cHLH_Avfb3xM3YmNq-290">
          <mxGeometry y="150" width="320" height="30" as="geometry" />
        </mxCell>
        <mxCell id="Gv_cHLH_Avfb3xM3YmNq-304" value="" style="shape=partialRectangle;html=1;whiteSpace=wrap;connectable=0;fillColor=none;top=0;left=0;bottom=0;right=0;overflow=hidden;strokeColor=inherit;fontSize=16;" vertex="1" parent="Gv_cHLH_Avfb3xM3YmNq-303">
          <mxGeometry width="40" height="30" as="geometry">
            <mxRectangle width="40" height="30" as="alternateBounds" />
          </mxGeometry>
        </mxCell>
        <mxCell id="Gv_cHLH_Avfb3xM3YmNq-305" value="" style="shape=partialRectangle;html=1;whiteSpace=wrap;connectable=0;fillColor=none;top=0;left=0;bottom=0;right=0;align=left;spacingLeft=6;overflow=hidden;strokeColor=inherit;fontSize=16;" vertex="1" parent="Gv_cHLH_Avfb3xM3YmNq-303">
          <mxGeometry x="40" width="280" height="30" as="geometry">
            <mxRectangle width="280" height="30" as="alternateBounds" />
          </mxGeometry>
        </mxCell>
        <mxCell id="Gv_cHLH_Avfb3xM3YmNq-306" value="" style="shape=tableRow;horizontal=0;startSize=0;swimlaneHead=0;swimlaneBody=0;top=0;left=0;bottom=0;right=0;collapsible=0;dropTarget=0;fillColor=none;points=[[0,0.5],[1,0.5]];portConstraint=eastwest;strokeColor=inherit;fontSize=16;" vertex="1" parent="Gv_cHLH_Avfb3xM3YmNq-290">
          <mxGeometry y="180" width="320" height="30" as="geometry" />
        </mxCell>
        <mxCell id="Gv_cHLH_Avfb3xM3YmNq-307" value="" style="shape=partialRectangle;html=1;whiteSpace=wrap;connectable=0;fillColor=none;top=0;left=0;bottom=0;right=0;overflow=hidden;strokeColor=inherit;fontSize=16;" vertex="1" parent="Gv_cHLH_Avfb3xM3YmNq-306">
          <mxGeometry width="40" height="30" as="geometry">
            <mxRectangle width="40" height="30" as="alternateBounds" />
          </mxGeometry>
        </mxCell>
        <mxCell id="Gv_cHLH_Avfb3xM3YmNq-308" value="" style="shape=partialRectangle;html=1;whiteSpace=wrap;connectable=0;fillColor=none;top=0;left=0;bottom=0;right=0;align=left;spacingLeft=6;overflow=hidden;strokeColor=inherit;fontSize=16;" vertex="1" parent="Gv_cHLH_Avfb3xM3YmNq-306">
          <mxGeometry x="40" width="280" height="30" as="geometry">
            <mxRectangle width="280" height="30" as="alternateBounds" />
          </mxGeometry>
        </mxCell>
        <mxCell id="Gv_cHLH_Avfb3xM3YmNq-309" value="" style="shape=tableRow;horizontal=0;startSize=0;swimlaneHead=0;swimlaneBody=0;top=0;left=0;bottom=0;right=0;collapsible=0;dropTarget=0;fillColor=none;points=[[0,0.5],[1,0.5]];portConstraint=eastwest;strokeColor=inherit;fontSize=16;" vertex="1" parent="Gv_cHLH_Avfb3xM3YmNq-290">
          <mxGeometry y="210" width="320" height="30" as="geometry" />
        </mxCell>
        <mxCell id="Gv_cHLH_Avfb3xM3YmNq-310" value="" style="shape=partialRectangle;html=1;whiteSpace=wrap;connectable=0;fillColor=none;top=0;left=0;bottom=0;right=0;overflow=hidden;strokeColor=inherit;fontSize=16;" vertex="1" parent="Gv_cHLH_Avfb3xM3YmNq-309">
          <mxGeometry width="40" height="30" as="geometry">
            <mxRectangle width="40" height="30" as="alternateBounds" />
          </mxGeometry>
        </mxCell>
        <mxCell id="Gv_cHLH_Avfb3xM3YmNq-311" value="" style="shape=partialRectangle;html=1;whiteSpace=wrap;connectable=0;fillColor=none;top=0;left=0;bottom=0;right=0;align=left;spacingLeft=6;overflow=hidden;strokeColor=inherit;fontSize=16;" vertex="1" parent="Gv_cHLH_Avfb3xM3YmNq-309">
          <mxGeometry x="40" width="280" height="30" as="geometry">
            <mxRectangle width="280" height="30" as="alternateBounds" />
          </mxGeometry>
        </mxCell>
        <mxCell id="Gv_cHLH_Avfb3xM3YmNq-312" value="User" style="shape=table;startSize=30;container=1;collapsible=0;childLayout=tableLayout;fixedRows=1;rowLines=0;fontStyle=0;strokeColor=default;fontSize=16;" vertex="1" parent="WIyWlLk6GJQsqaUBKTNV-1">
          <mxGeometry x="510" y="2120" width="320" height="240" as="geometry" />
        </mxCell>
        <mxCell id="Gv_cHLH_Avfb3xM3YmNq-313" value="" style="shape=tableRow;horizontal=0;startSize=0;swimlaneHead=0;swimlaneBody=0;top=0;left=0;bottom=0;right=0;collapsible=0;dropTarget=0;fillColor=none;points=[[0,0.5],[1,0.5]];portConstraint=eastwest;strokeColor=inherit;fontSize=16;" vertex="1" parent="Gv_cHLH_Avfb3xM3YmNq-312">
          <mxGeometry y="30" width="320" height="30" as="geometry" />
        </mxCell>
        <mxCell id="Gv_cHLH_Avfb3xM3YmNq-314" value="" style="shape=partialRectangle;html=1;whiteSpace=wrap;connectable=0;fillColor=none;top=0;left=0;bottom=0;right=0;overflow=hidden;pointerEvents=1;strokeColor=inherit;fontSize=16;" vertex="1" parent="Gv_cHLH_Avfb3xM3YmNq-313">
          <mxGeometry width="40" height="30" as="geometry">
            <mxRectangle width="40" height="30" as="alternateBounds" />
          </mxGeometry>
        </mxCell>
        <mxCell id="Gv_cHLH_Avfb3xM3YmNq-315" value="" style="shape=partialRectangle;html=1;whiteSpace=wrap;connectable=0;fillColor=none;top=0;left=0;bottom=0;right=0;align=left;spacingLeft=6;overflow=hidden;strokeColor=inherit;fontSize=16;" vertex="1" parent="Gv_cHLH_Avfb3xM3YmNq-313">
          <mxGeometry x="40" width="280" height="30" as="geometry">
            <mxRectangle width="280" height="30" as="alternateBounds" />
          </mxGeometry>
        </mxCell>
        <mxCell id="Gv_cHLH_Avfb3xM3YmNq-316" value="" style="shape=tableRow;horizontal=0;startSize=0;swimlaneHead=0;swimlaneBody=0;top=0;left=0;bottom=0;right=0;collapsible=0;dropTarget=0;fillColor=none;points=[[0,0.5],[1,0.5]];portConstraint=eastwest;strokeColor=inherit;fontSize=16;" vertex="1" parent="Gv_cHLH_Avfb3xM3YmNq-312">
          <mxGeometry y="60" width="320" height="30" as="geometry" />
        </mxCell>
        <mxCell id="Gv_cHLH_Avfb3xM3YmNq-317" value="" style="shape=partialRectangle;html=1;whiteSpace=wrap;connectable=0;fillColor=none;top=0;left=0;bottom=0;right=0;overflow=hidden;pointerEvents=1;strokeColor=inherit;fontSize=16;" vertex="1" parent="Gv_cHLH_Avfb3xM3YmNq-316">
          <mxGeometry width="40" height="30" as="geometry">
            <mxRectangle width="40" height="30" as="alternateBounds" />
          </mxGeometry>
        </mxCell>
        <mxCell id="Gv_cHLH_Avfb3xM3YmNq-318" value="" style="shape=partialRectangle;html=1;whiteSpace=wrap;connectable=0;fillColor=none;top=0;left=0;bottom=0;right=0;align=left;spacingLeft=6;overflow=hidden;strokeColor=inherit;fontSize=16;" vertex="1" parent="Gv_cHLH_Avfb3xM3YmNq-316">
          <mxGeometry x="40" width="280" height="30" as="geometry">
            <mxRectangle width="280" height="30" as="alternateBounds" />
          </mxGeometry>
        </mxCell>
        <mxCell id="Gv_cHLH_Avfb3xM3YmNq-319" value="" style="shape=tableRow;horizontal=0;startSize=0;swimlaneHead=0;swimlaneBody=0;top=0;left=0;bottom=0;right=0;collapsible=0;dropTarget=0;fillColor=none;points=[[0,0.5],[1,0.5]];portConstraint=eastwest;strokeColor=inherit;fontSize=16;" vertex="1" parent="Gv_cHLH_Avfb3xM3YmNq-312">
          <mxGeometry y="90" width="320" height="30" as="geometry" />
        </mxCell>
        <mxCell id="Gv_cHLH_Avfb3xM3YmNq-320" value="" style="shape=partialRectangle;html=1;whiteSpace=wrap;connectable=0;fillColor=none;top=0;left=0;bottom=0;right=0;overflow=hidden;pointerEvents=1;strokeColor=inherit;fontSize=16;" vertex="1" parent="Gv_cHLH_Avfb3xM3YmNq-319">
          <mxGeometry width="40" height="30" as="geometry">
            <mxRectangle width="40" height="30" as="alternateBounds" />
          </mxGeometry>
        </mxCell>
        <mxCell id="Gv_cHLH_Avfb3xM3YmNq-321" value="" style="shape=partialRectangle;html=1;whiteSpace=wrap;connectable=0;fillColor=none;top=0;left=0;bottom=0;right=0;align=left;spacingLeft=6;overflow=hidden;strokeColor=inherit;fontSize=16;" vertex="1" parent="Gv_cHLH_Avfb3xM3YmNq-319">
          <mxGeometry x="40" width="280" height="30" as="geometry">
            <mxRectangle width="280" height="30" as="alternateBounds" />
          </mxGeometry>
        </mxCell>
        <mxCell id="Gv_cHLH_Avfb3xM3YmNq-322" value="" style="shape=tableRow;horizontal=0;startSize=0;swimlaneHead=0;swimlaneBody=0;top=0;left=0;bottom=0;right=0;collapsible=0;dropTarget=0;fillColor=none;points=[[0,0.5],[1,0.5]];portConstraint=eastwest;strokeColor=inherit;fontSize=16;" vertex="1" parent="Gv_cHLH_Avfb3xM3YmNq-312">
          <mxGeometry y="120" width="320" height="30" as="geometry" />
        </mxCell>
        <mxCell id="Gv_cHLH_Avfb3xM3YmNq-323" value="" style="shape=partialRectangle;html=1;whiteSpace=wrap;connectable=0;fillColor=none;top=0;left=0;bottom=0;right=0;overflow=hidden;strokeColor=inherit;fontSize=16;" vertex="1" parent="Gv_cHLH_Avfb3xM3YmNq-322">
          <mxGeometry width="40" height="30" as="geometry">
            <mxRectangle width="40" height="30" as="alternateBounds" />
          </mxGeometry>
        </mxCell>
        <mxCell id="Gv_cHLH_Avfb3xM3YmNq-324" value="" style="shape=partialRectangle;html=1;whiteSpace=wrap;connectable=0;fillColor=none;top=0;left=0;bottom=0;right=0;align=left;spacingLeft=6;overflow=hidden;strokeColor=inherit;fontSize=16;" vertex="1" parent="Gv_cHLH_Avfb3xM3YmNq-322">
          <mxGeometry x="40" width="280" height="30" as="geometry">
            <mxRectangle width="280" height="30" as="alternateBounds" />
          </mxGeometry>
        </mxCell>
        <mxCell id="Gv_cHLH_Avfb3xM3YmNq-325" value="" style="shape=tableRow;horizontal=0;startSize=0;swimlaneHead=0;swimlaneBody=0;top=0;left=0;bottom=0;right=0;collapsible=0;dropTarget=0;fillColor=none;points=[[0,0.5],[1,0.5]];portConstraint=eastwest;strokeColor=inherit;fontSize=16;" vertex="1" parent="Gv_cHLH_Avfb3xM3YmNq-312">
          <mxGeometry y="150" width="320" height="30" as="geometry" />
        </mxCell>
        <mxCell id="Gv_cHLH_Avfb3xM3YmNq-326" value="" style="shape=partialRectangle;html=1;whiteSpace=wrap;connectable=0;fillColor=none;top=0;left=0;bottom=0;right=0;overflow=hidden;strokeColor=inherit;fontSize=16;" vertex="1" parent="Gv_cHLH_Avfb3xM3YmNq-325">
          <mxGeometry width="40" height="30" as="geometry">
            <mxRectangle width="40" height="30" as="alternateBounds" />
          </mxGeometry>
        </mxCell>
        <mxCell id="Gv_cHLH_Avfb3xM3YmNq-327" value="" style="shape=partialRectangle;html=1;whiteSpace=wrap;connectable=0;fillColor=none;top=0;left=0;bottom=0;right=0;align=left;spacingLeft=6;overflow=hidden;strokeColor=inherit;fontSize=16;" vertex="1" parent="Gv_cHLH_Avfb3xM3YmNq-325">
          <mxGeometry x="40" width="280" height="30" as="geometry">
            <mxRectangle width="280" height="30" as="alternateBounds" />
          </mxGeometry>
        </mxCell>
        <mxCell id="Gv_cHLH_Avfb3xM3YmNq-328" value="" style="shape=tableRow;horizontal=0;startSize=0;swimlaneHead=0;swimlaneBody=0;top=0;left=0;bottom=0;right=0;collapsible=0;dropTarget=0;fillColor=none;points=[[0,0.5],[1,0.5]];portConstraint=eastwest;strokeColor=inherit;fontSize=16;" vertex="1" parent="Gv_cHLH_Avfb3xM3YmNq-312">
          <mxGeometry y="180" width="320" height="30" as="geometry" />
        </mxCell>
        <mxCell id="Gv_cHLH_Avfb3xM3YmNq-329" value="" style="shape=partialRectangle;html=1;whiteSpace=wrap;connectable=0;fillColor=none;top=0;left=0;bottom=0;right=0;overflow=hidden;strokeColor=inherit;fontSize=16;" vertex="1" parent="Gv_cHLH_Avfb3xM3YmNq-328">
          <mxGeometry width="40" height="30" as="geometry">
            <mxRectangle width="40" height="30" as="alternateBounds" />
          </mxGeometry>
        </mxCell>
        <mxCell id="Gv_cHLH_Avfb3xM3YmNq-330" value="" style="shape=partialRectangle;html=1;whiteSpace=wrap;connectable=0;fillColor=none;top=0;left=0;bottom=0;right=0;align=left;spacingLeft=6;overflow=hidden;strokeColor=inherit;fontSize=16;" vertex="1" parent="Gv_cHLH_Avfb3xM3YmNq-328">
          <mxGeometry x="40" width="280" height="30" as="geometry">
            <mxRectangle width="280" height="30" as="alternateBounds" />
          </mxGeometry>
        </mxCell>
        <mxCell id="Gv_cHLH_Avfb3xM3YmNq-331" value="" style="shape=tableRow;horizontal=0;startSize=0;swimlaneHead=0;swimlaneBody=0;top=0;left=0;bottom=0;right=0;collapsible=0;dropTarget=0;fillColor=none;points=[[0,0.5],[1,0.5]];portConstraint=eastwest;strokeColor=inherit;fontSize=16;" vertex="1" parent="Gv_cHLH_Avfb3xM3YmNq-312">
          <mxGeometry y="210" width="320" height="30" as="geometry" />
        </mxCell>
        <mxCell id="Gv_cHLH_Avfb3xM3YmNq-332" value="" style="shape=partialRectangle;html=1;whiteSpace=wrap;connectable=0;fillColor=none;top=0;left=0;bottom=0;right=0;overflow=hidden;strokeColor=inherit;fontSize=16;" vertex="1" parent="Gv_cHLH_Avfb3xM3YmNq-331">
          <mxGeometry width="40" height="30" as="geometry">
            <mxRectangle width="40" height="30" as="alternateBounds" />
          </mxGeometry>
        </mxCell>
        <mxCell id="Gv_cHLH_Avfb3xM3YmNq-333" value="" style="shape=partialRectangle;html=1;whiteSpace=wrap;connectable=0;fillColor=none;top=0;left=0;bottom=0;right=0;align=left;spacingLeft=6;overflow=hidden;strokeColor=inherit;fontSize=16;" vertex="1" parent="Gv_cHLH_Avfb3xM3YmNq-331">
          <mxGeometry x="40" width="280" height="30" as="geometry">
            <mxRectangle width="280" height="30" as="alternateBounds" />
          </mxGeometry>
        </mxCell>
        <mxCell id="Gv_cHLH_Avfb3xM3YmNq-334" style="edgeStyle=orthogonalEdgeStyle;rounded=0;orthogonalLoop=1;jettySize=auto;html=1;exitX=0;exitY=0.5;exitDx=0;exitDy=0;entryX=1;entryY=0.5;entryDx=0;entryDy=0;endArrow=none;endFill=0;" edge="1" parent="WIyWlLk6GJQsqaUBKTNV-1" source="Gv_cHLH_Avfb3xM3YmNq-313" target="Gv_cHLH_Avfb3xM3YmNq-246">
          <mxGeometry relative="1" as="geometry" />
        </mxCell>
        <mxCell id="Gv_cHLH_Avfb3xM3YmNq-335" style="edgeStyle=orthogonalEdgeStyle;rounded=0;orthogonalLoop=1;jettySize=auto;html=1;exitX=1;exitY=0.5;exitDx=0;exitDy=0;entryX=0;entryY=0.5;entryDx=0;entryDy=0;endArrow=none;endFill=0;" edge="1" parent="WIyWlLk6GJQsqaUBKTNV-1" source="Gv_cHLH_Avfb3xM3YmNq-322" target="Gv_cHLH_Avfb3xM3YmNq-300">
          <mxGeometry relative="1" as="geometry" />
        </mxCell>
        <mxCell id="Gv_cHLH_Avfb3xM3YmNq-336" style="edgeStyle=orthogonalEdgeStyle;rounded=0;orthogonalLoop=1;jettySize=auto;html=1;exitX=1;exitY=0.5;exitDx=0;exitDy=0;entryX=0;entryY=0.5;entryDx=0;entryDy=0;endArrow=none;endFill=0;" edge="1" parent="WIyWlLk6GJQsqaUBKTNV-1" source="Gv_cHLH_Avfb3xM3YmNq-313" target="Gv_cHLH_Avfb3xM3YmNq-262">
          <mxGeometry relative="1" as="geometry" />
        </mxCell>
        <mxCell id="Gv_cHLH_Avfb3xM3YmNq-337" style="edgeStyle=orthogonalEdgeStyle;rounded=0;orthogonalLoop=1;jettySize=auto;html=1;exitX=0;exitY=0.5;exitDx=0;exitDy=0;endArrow=none;endFill=0;" edge="1" parent="WIyWlLk6GJQsqaUBKTNV-1" source="Gv_cHLH_Avfb3xM3YmNq-256" target="Gv_cHLH_Avfb3xM3YmNq-275">
          <mxGeometry relative="1" as="geometry" />
        </mxCell>
      </root>
    </mxGraphModel>
  </diagram>
</mxfile>
